<mxfile host="Electron" modified="2023-05-09T17:03:11.145Z" agent="Mozilla/5.0 (Windows NT 10.0; Win64; x64) AppleWebKit/537.36 (KHTML, like Gecko) draw.io/21.2.8 Chrome/112.0.5615.165 Electron/24.2.0 Safari/537.36" etag="uVzREq7yJHmTWWHPykU7" version="21.2.8" type="device" pages="9">
  <diagram id="qRNQCEagITmQh4AcXc21" name="Page-1">
    <mxGraphModel dx="1793" dy="710" grid="1" gridSize="10" guides="1" tooltips="1" connect="1" arrows="1" fold="1" page="1" pageScale="1" pageWidth="827" pageHeight="1169" math="0" shadow="0">
      <root>
        <mxCell id="0" />
        <mxCell id="1" parent="0" />
        <mxCell id="RtTgEbr4ieSY5KyOoR2w-2" value="Region" style="points=[[0,0],[0.25,0],[0.5,0],[0.75,0],[1,0],[1,0.25],[1,0.5],[1,0.75],[1,1],[0.75,1],[0.5,1],[0.25,1],[0,1],[0,0.75],[0,0.5],[0,0.25]];outlineConnect=0;gradientColor=none;html=1;whiteSpace=wrap;fontSize=12;fontStyle=0;shape=mxgraph.aws4.group;grIcon=mxgraph.aws4.group_region;strokeColor=#147EBA;fillColor=none;verticalAlign=top;align=left;spacingLeft=30;fontColor=#147EBA;dashed=0;" parent="1" vertex="1">
          <mxGeometry x="170" y="180" width="570" height="300" as="geometry" />
        </mxCell>
        <mxCell id="RtTgEbr4ieSY5KyOoR2w-4" value="Availability Zone" style="fillColor=none;strokeColor=#147EBA;dashed=1;verticalAlign=top;fontStyle=0;fontColor=#147EBA;" parent="1" vertex="1">
          <mxGeometry x="280" y="210" width="440" height="240" as="geometry" />
        </mxCell>
        <mxCell id="RtTgEbr4ieSY5KyOoR2w-12" value="Front End&lt;br&gt;Invoke" style="outlineConnect=0;fontColor=#232F3E;gradientColor=none;fillColor=#D86613;strokeColor=none;dashed=0;verticalLabelPosition=bottom;verticalAlign=top;align=center;html=1;fontSize=12;fontStyle=0;aspect=fixed;pointerEvents=1;shape=mxgraph.aws4.instance2;" parent="1" vertex="1">
          <mxGeometry x="310" y="260" width="30" height="30" as="geometry" />
        </mxCell>
        <mxCell id="RtTgEbr4ieSY5KyOoR2w-13" value="Front End&lt;br&gt;Invoke" style="outlineConnect=0;fontColor=#232F3E;gradientColor=none;fillColor=#D86613;strokeColor=none;dashed=0;verticalLabelPosition=bottom;verticalAlign=top;align=center;html=1;fontSize=12;fontStyle=0;aspect=fixed;pointerEvents=1;shape=mxgraph.aws4.instance2;" parent="1" vertex="1">
          <mxGeometry x="310" y="366.75" width="30" height="30" as="geometry" />
        </mxCell>
        <mxCell id="RtTgEbr4ieSY5KyOoR2w-27" value="Lambda&lt;br&gt;Customer" style="outlineConnect=0;fontColor=#232F3E;gradientColor=none;fillColor=#232F3E;strokeColor=none;dashed=0;verticalLabelPosition=bottom;verticalAlign=top;align=center;html=1;fontSize=12;fontStyle=0;aspect=fixed;pointerEvents=1;shape=mxgraph.aws4.users;" parent="1" vertex="1">
          <mxGeometry x="40" y="305.5" width="49" height="49" as="geometry" />
        </mxCell>
        <mxCell id="RtTgEbr4ieSY5KyOoR2w-35" value="Worker Manager" style="outlineConnect=0;fontColor=#232F3E;gradientColor=none;fillColor=#D86613;strokeColor=none;dashed=0;verticalLabelPosition=bottom;verticalAlign=top;align=center;html=1;fontSize=12;fontStyle=0;aspect=fixed;pointerEvents=1;shape=mxgraph.aws4.instance2;" parent="1" vertex="1">
          <mxGeometry x="420" y="260" width="30" height="30" as="geometry" />
        </mxCell>
        <mxCell id="YQuOUuCnKOsZXyOt0s_I-2" value="Application&amp;nbsp;&lt;br&gt;Load Balancer" style="sketch=0;outlineConnect=0;fontColor=#232F3E;gradientColor=none;fillColor=#4D27AA;strokeColor=none;dashed=0;verticalLabelPosition=bottom;verticalAlign=top;align=center;html=1;fontSize=12;fontStyle=0;aspect=fixed;pointerEvents=1;shape=mxgraph.aws4.application_load_balancer;" parent="1" vertex="1">
          <mxGeometry x="202" y="305.5" width="49" height="49" as="geometry" />
        </mxCell>
        <mxCell id="YQuOUuCnKOsZXyOt0s_I-7" value="&lt;i&gt;(1) invoke&lt;/i&gt;" style="edgeStyle=orthogonalEdgeStyle;html=1;endArrow=open;elbow=vertical;startArrow=none;endFill=0;strokeColor=#545B64;rounded=0;" parent="1" source="RtTgEbr4ieSY5KyOoR2w-27" edge="1">
          <mxGeometry x="-0.2613" y="20" width="100" relative="1" as="geometry">
            <mxPoint x="300" y="380" as="sourcePoint" />
            <mxPoint x="200" y="330" as="targetPoint" />
            <mxPoint as="offset" />
          </mxGeometry>
        </mxCell>
        <mxCell id="YQuOUuCnKOsZXyOt0s_I-9" value="&lt;i&gt;(2) invoke&lt;/i&gt;" style="html=1;endArrow=open;elbow=vertical;startArrow=none;endFill=0;strokeColor=#545B64;rounded=0;" parent="1" target="RtTgEbr4ieSY5KyOoR2w-13" edge="1">
          <mxGeometry x="-0.2366" y="15" width="100" relative="1" as="geometry">
            <mxPoint x="250" y="340" as="sourcePoint" />
            <mxPoint x="210" y="340" as="targetPoint" />
            <mxPoint as="offset" />
          </mxGeometry>
        </mxCell>
        <mxCell id="YQuOUuCnKOsZXyOt0s_I-10" value="AWS Cloud" style="points=[[0,0],[0.25,0],[0.5,0],[0.75,0],[1,0],[1,0.25],[1,0.5],[1,0.75],[1,1],[0.75,1],[0.5,1],[0.25,1],[0,1],[0,0.75],[0,0.5],[0,0.25]];outlineConnect=0;gradientColor=none;html=1;whiteSpace=wrap;fontSize=12;fontStyle=0;container=1;pointerEvents=0;collapsible=0;recursiveResize=0;shape=mxgraph.aws4.group;grIcon=mxgraph.aws4.group_aws_cloud;strokeColor=#232F3E;fillColor=none;verticalAlign=top;align=left;spacingLeft=30;fontColor=#232F3E;dashed=0;" parent="1" vertex="1">
          <mxGeometry x="140" y="150" width="630" height="360" as="geometry" />
        </mxCell>
        <mxCell id="YQuOUuCnKOsZXyOt0s_I-3" value="Worker Manager" style="outlineConnect=0;fontColor=#232F3E;gradientColor=none;fillColor=#D86613;strokeColor=none;dashed=0;verticalLabelPosition=bottom;verticalAlign=top;align=center;html=1;fontSize=12;fontStyle=0;aspect=fixed;pointerEvents=1;shape=mxgraph.aws4.instance2;" parent="YQuOUuCnKOsZXyOt0s_I-10" vertex="1">
          <mxGeometry x="280" y="165" width="30" height="30" as="geometry" />
        </mxCell>
        <mxCell id="RtTgEbr4ieSY5KyOoR2w-36" value="Placement&lt;br&gt;Service" style="outlineConnect=0;fontColor=#232F3E;gradientColor=none;fillColor=#D86613;strokeColor=none;dashed=0;verticalLabelPosition=bottom;verticalAlign=top;align=center;html=1;fontSize=12;fontStyle=0;aspect=fixed;pointerEvents=1;shape=mxgraph.aws4.instance2;" parent="YQuOUuCnKOsZXyOt0s_I-10" vertex="1">
          <mxGeometry x="390" y="110" width="30" height="30" as="geometry" />
        </mxCell>
        <mxCell id="BU5K7i4NjSTzzSr1u0IM-3" value="&lt;i&gt;(4) claim&lt;br&gt;worker&lt;br&gt;&lt;/i&gt;" style="html=1;endArrow=open;elbow=vertical;startArrow=none;endFill=0;strokeColor=#545B64;rounded=0;entryX=0.078;entryY=0.533;entryDx=0;entryDy=0;entryPerimeter=0;" parent="YQuOUuCnKOsZXyOt0s_I-10" source="YQuOUuCnKOsZXyOt0s_I-3" target="RtTgEbr4ieSY5KyOoR2w-36" edge="1">
          <mxGeometry x="-0.0134" y="22" width="100" relative="1" as="geometry">
            <mxPoint x="210" y="234.69318181818176" as="sourcePoint" />
            <mxPoint x="290" y="197.05681818181824" as="targetPoint" />
            <mxPoint as="offset" />
          </mxGeometry>
        </mxCell>
        <mxCell id="YQuOUuCnKOsZXyOt0s_I-4" value="Worker" style="outlineConnect=0;fontColor=#232F3E;gradientColor=none;fillColor=#D86613;strokeColor=none;dashed=0;verticalLabelPosition=bottom;verticalAlign=top;align=center;html=1;fontSize=12;fontStyle=0;aspect=fixed;pointerEvents=1;shape=mxgraph.aws4.instance2;" parent="YQuOUuCnKOsZXyOt0s_I-10" vertex="1">
          <mxGeometry x="510" y="110" width="30" height="30" as="geometry" />
        </mxCell>
        <mxCell id="YQuOUuCnKOsZXyOt0s_I-5" value="Worker" style="outlineConnect=0;fontColor=#232F3E;gradientColor=none;fillColor=#D86613;strokeColor=none;dashed=0;verticalLabelPosition=bottom;verticalAlign=top;align=center;html=1;fontSize=12;fontStyle=0;aspect=fixed;pointerEvents=1;shape=mxgraph.aws4.instance2;" parent="YQuOUuCnKOsZXyOt0s_I-10" vertex="1">
          <mxGeometry x="510" y="165" width="30" height="30" as="geometry" />
        </mxCell>
        <mxCell id="YQuOUuCnKOsZXyOt0s_I-6" value="Worker" style="outlineConnect=0;fontColor=#232F3E;gradientColor=none;fillColor=#D86613;strokeColor=none;dashed=0;verticalLabelPosition=bottom;verticalAlign=top;align=center;html=1;fontSize=12;fontStyle=0;aspect=fixed;pointerEvents=1;shape=mxgraph.aws4.instance2;" parent="YQuOUuCnKOsZXyOt0s_I-10" vertex="1">
          <mxGeometry x="510" y="216.75" width="30" height="30" as="geometry" />
        </mxCell>
        <mxCell id="BU5K7i4NjSTzzSr1u0IM-4" value="&lt;i&gt;(5) select&lt;br&gt;worker&lt;br&gt;&lt;/i&gt;" style="html=1;endArrow=open;elbow=vertical;startArrow=none;endFill=0;strokeColor=#545B64;rounded=0;" parent="YQuOUuCnKOsZXyOt0s_I-10" source="RtTgEbr4ieSY5KyOoR2w-36" target="YQuOUuCnKOsZXyOt0s_I-6" edge="1">
          <mxGeometry x="-0.1271" y="31" width="100" relative="1" as="geometry">
            <mxPoint x="320" y="181.67711115677002" as="sourcePoint" />
            <mxPoint x="402.3399999999999" y="135.99" as="targetPoint" />
            <mxPoint as="offset" />
          </mxGeometry>
        </mxCell>
        <mxCell id="BU5K7i4NjSTzzSr1u0IM-5" value="&lt;i&gt;(6) init&lt;br&gt;&lt;/i&gt;" style="html=1;endArrow=open;elbow=vertical;startArrow=none;endFill=0;strokeColor=#545B64;rounded=0;" parent="YQuOUuCnKOsZXyOt0s_I-10" source="YQuOUuCnKOsZXyOt0s_I-3" target="YQuOUuCnKOsZXyOt0s_I-6" edge="1">
          <mxGeometry x="0.0612" y="18" width="100" relative="1" as="geometry">
            <mxPoint x="320" y="181.67711115677002" as="sourcePoint" />
            <mxPoint x="402.3399999999999" y="135.99" as="targetPoint" />
            <mxPoint as="offset" />
          </mxGeometry>
        </mxCell>
        <mxCell id="BU5K7i4NjSTzzSr1u0IM-8" value="" style="sketch=0;points=[[0,0,0],[0.25,0,0],[0.5,0,0],[0.75,0,0],[1,0,0],[0,1,0],[0.25,1,0],[0.5,1,0],[0.75,1,0],[1,1,0],[0,0.25,0],[0,0.5,0],[0,0.75,0],[1,0.25,0],[1,0.5,0],[1,0.75,0]];outlineConnect=0;fontColor=#232F3E;gradientColor=#F78E04;gradientDirection=north;fillColor=#D05C17;strokeColor=#ffffff;dashed=0;verticalLabelPosition=bottom;verticalAlign=top;align=center;html=1;fontSize=12;fontStyle=0;aspect=fixed;shape=mxgraph.aws4.resourceIcon;resIcon=mxgraph.aws4.lambda;" parent="YQuOUuCnKOsZXyOt0s_I-10" vertex="1">
          <mxGeometry x="60" y="70" width="46" height="46" as="geometry" />
        </mxCell>
        <mxCell id="BU5K7i4NjSTzzSr1u0IM-9" value="" style="sketch=0;outlineConnect=0;fontColor=#232F3E;gradientColor=none;fillColor=#D45B07;strokeColor=none;dashed=0;verticalLabelPosition=bottom;verticalAlign=top;align=center;html=1;fontSize=12;fontStyle=0;aspect=fixed;pointerEvents=1;shape=mxgraph.aws4.lambda_function;" parent="YQuOUuCnKOsZXyOt0s_I-10" vertex="1">
          <mxGeometry x="516" y="222.75" width="18" height="18" as="geometry" />
        </mxCell>
        <mxCell id="BU5K7i4NjSTzzSr1u0IM-1" value="&lt;i&gt;(3) reserve &lt;br&gt;sandbox&lt;/i&gt;" style="html=1;endArrow=open;elbow=vertical;startArrow=none;endFill=0;strokeColor=#545B64;rounded=0;" parent="1" source="RtTgEbr4ieSY5KyOoR2w-13" target="YQuOUuCnKOsZXyOt0s_I-3" edge="1">
          <mxGeometry x="-0.2565" y="23" width="100" relative="1" as="geometry">
            <mxPoint x="340" y="340" as="sourcePoint" />
            <mxPoint x="400" y="373.4000000000001" as="targetPoint" />
            <mxPoint as="offset" />
          </mxGeometry>
        </mxCell>
        <mxCell id="BU5K7i4NjSTzzSr1u0IM-6" value="&lt;i&gt;(7) invoke&lt;br&gt;&lt;/i&gt;" style="html=1;endArrow=open;elbow=vertical;startArrow=none;endFill=0;strokeColor=#545B64;rounded=0;" parent="1" source="RtTgEbr4ieSY5KyOoR2w-13" target="YQuOUuCnKOsZXyOt0s_I-6" edge="1">
          <mxGeometry x="-0.0323" y="-18" width="100" relative="1" as="geometry">
            <mxPoint x="470" y="341.67711115677" as="sourcePoint" />
            <mxPoint x="552.3399999999999" y="295.99" as="targetPoint" />
            <mxPoint as="offset" />
          </mxGeometry>
        </mxCell>
      </root>
    </mxGraphModel>
  </diagram>
  <diagram id="-l2lkW0NGqZyys1JVJwQ" name="Seite-22">
    <mxGraphModel dx="1793" dy="710" grid="1" gridSize="10" guides="1" tooltips="1" connect="1" arrows="1" fold="1" page="1" pageScale="1" pageWidth="827" pageHeight="1169" math="0" shadow="0">
      <root>
        <mxCell id="P-X50N9pZkS2RA2nV46x-0" />
        <mxCell id="P-X50N9pZkS2RA2nV46x-1" parent="P-X50N9pZkS2RA2nV46x-0" />
        <mxCell id="15arPcZ15PRukcMCQNeJ-0" value="Region" style="points=[[0,0],[0.25,0],[0.5,0],[0.75,0],[1,0],[1,0.25],[1,0.5],[1,0.75],[1,1],[0.75,1],[0.5,1],[0.25,1],[0,1],[0,0.75],[0,0.5],[0,0.25]];outlineConnect=0;gradientColor=none;html=1;whiteSpace=wrap;fontSize=12;fontStyle=0;shape=mxgraph.aws4.group;grIcon=mxgraph.aws4.group_region;strokeColor=#147EBA;fillColor=none;verticalAlign=top;align=left;spacingLeft=30;fontColor=#147EBA;dashed=0;" parent="P-X50N9pZkS2RA2nV46x-1" vertex="1">
          <mxGeometry x="170" y="180" width="570" height="300" as="geometry" />
        </mxCell>
        <mxCell id="15arPcZ15PRukcMCQNeJ-1" value="Availability Zone" style="fillColor=none;strokeColor=#147EBA;dashed=1;verticalAlign=top;fontStyle=0;fontColor=#147EBA;" parent="P-X50N9pZkS2RA2nV46x-1" vertex="1">
          <mxGeometry x="280" y="210" width="440" height="240" as="geometry" />
        </mxCell>
        <mxCell id="15arPcZ15PRukcMCQNeJ-2" value="Front End&lt;br&gt;Invoke" style="outlineConnect=0;fontColor=#232F3E;gradientColor=none;fillColor=#D86613;strokeColor=none;dashed=0;verticalLabelPosition=bottom;verticalAlign=top;align=center;html=1;fontSize=12;fontStyle=0;aspect=fixed;pointerEvents=1;shape=mxgraph.aws4.instance2;" parent="P-X50N9pZkS2RA2nV46x-1" vertex="1">
          <mxGeometry x="310" y="260" width="30" height="30" as="geometry" />
        </mxCell>
        <mxCell id="15arPcZ15PRukcMCQNeJ-3" value="Front End&lt;br&gt;Invoke" style="outlineConnect=0;fontColor=#232F3E;gradientColor=none;fillColor=#D86613;strokeColor=none;dashed=0;verticalLabelPosition=bottom;verticalAlign=top;align=center;html=1;fontSize=12;fontStyle=0;aspect=fixed;pointerEvents=1;shape=mxgraph.aws4.instance2;" parent="P-X50N9pZkS2RA2nV46x-1" vertex="1">
          <mxGeometry x="310" y="366.75" width="30" height="30" as="geometry" />
        </mxCell>
        <mxCell id="15arPcZ15PRukcMCQNeJ-4" value="Lambda&lt;br&gt;Customer" style="outlineConnect=0;fontColor=#232F3E;gradientColor=none;fillColor=#232F3E;strokeColor=none;dashed=0;verticalLabelPosition=bottom;verticalAlign=top;align=center;html=1;fontSize=12;fontStyle=0;aspect=fixed;pointerEvents=1;shape=mxgraph.aws4.users;" parent="P-X50N9pZkS2RA2nV46x-1" vertex="1">
          <mxGeometry x="40" y="305.5" width="49" height="49" as="geometry" />
        </mxCell>
        <mxCell id="15arPcZ15PRukcMCQNeJ-5" value="Worker Manager" style="outlineConnect=0;fontColor=#232F3E;gradientColor=none;fillColor=#D86613;strokeColor=none;dashed=0;verticalLabelPosition=bottom;verticalAlign=top;align=center;html=1;fontSize=12;fontStyle=0;aspect=fixed;pointerEvents=1;shape=mxgraph.aws4.instance2;" parent="P-X50N9pZkS2RA2nV46x-1" vertex="1">
          <mxGeometry x="420" y="260" width="30" height="30" as="geometry" />
        </mxCell>
        <mxCell id="15arPcZ15PRukcMCQNeJ-6" value="Application&amp;nbsp;&lt;br&gt;Load Balancer" style="sketch=0;outlineConnect=0;fontColor=#232F3E;gradientColor=none;fillColor=#4D27AA;strokeColor=none;dashed=0;verticalLabelPosition=bottom;verticalAlign=top;align=center;html=1;fontSize=12;fontStyle=0;aspect=fixed;pointerEvents=1;shape=mxgraph.aws4.application_load_balancer;" parent="P-X50N9pZkS2RA2nV46x-1" vertex="1">
          <mxGeometry x="202" y="305.5" width="49" height="49" as="geometry" />
        </mxCell>
        <mxCell id="15arPcZ15PRukcMCQNeJ-7" value="&lt;i&gt;(1) invoke&lt;/i&gt;" style="edgeStyle=orthogonalEdgeStyle;html=1;endArrow=open;elbow=vertical;startArrow=none;endFill=0;strokeColor=#545B64;rounded=0;" parent="P-X50N9pZkS2RA2nV46x-1" source="15arPcZ15PRukcMCQNeJ-4" edge="1">
          <mxGeometry x="-0.2613" y="20" width="100" relative="1" as="geometry">
            <mxPoint x="300" y="380" as="sourcePoint" />
            <mxPoint x="200" y="330" as="targetPoint" />
            <mxPoint as="offset" />
          </mxGeometry>
        </mxCell>
        <mxCell id="15arPcZ15PRukcMCQNeJ-8" value="&lt;i&gt;(2) invoke&lt;/i&gt;" style="html=1;endArrow=open;elbow=vertical;startArrow=none;endFill=0;strokeColor=#545B64;rounded=0;" parent="P-X50N9pZkS2RA2nV46x-1" target="15arPcZ15PRukcMCQNeJ-3" edge="1">
          <mxGeometry x="-0.2366" y="15" width="100" relative="1" as="geometry">
            <mxPoint x="250" y="340" as="sourcePoint" />
            <mxPoint x="210" y="340" as="targetPoint" />
            <mxPoint as="offset" />
          </mxGeometry>
        </mxCell>
        <mxCell id="15arPcZ15PRukcMCQNeJ-9" value="AWS Cloud" style="points=[[0,0],[0.25,0],[0.5,0],[0.75,0],[1,0],[1,0.25],[1,0.5],[1,0.75],[1,1],[0.75,1],[0.5,1],[0.25,1],[0,1],[0,0.75],[0,0.5],[0,0.25]];outlineConnect=0;gradientColor=none;html=1;whiteSpace=wrap;fontSize=12;fontStyle=0;container=1;pointerEvents=0;collapsible=0;recursiveResize=0;shape=mxgraph.aws4.group;grIcon=mxgraph.aws4.group_aws_cloud;strokeColor=#232F3E;fillColor=none;verticalAlign=top;align=left;spacingLeft=30;fontColor=#232F3E;dashed=0;" parent="P-X50N9pZkS2RA2nV46x-1" vertex="1">
          <mxGeometry x="140" y="150" width="630" height="360" as="geometry" />
        </mxCell>
        <mxCell id="15arPcZ15PRukcMCQNeJ-10" value="Worker Manager" style="outlineConnect=0;fontColor=#232F3E;gradientColor=none;fillColor=#D86613;strokeColor=none;dashed=0;verticalLabelPosition=bottom;verticalAlign=top;align=center;html=1;fontSize=12;fontStyle=0;aspect=fixed;pointerEvents=1;shape=mxgraph.aws4.instance2;" parent="15arPcZ15PRukcMCQNeJ-9" vertex="1">
          <mxGeometry x="280" y="165" width="30" height="30" as="geometry" />
        </mxCell>
        <mxCell id="15arPcZ15PRukcMCQNeJ-11" value="Placement&lt;br&gt;Service" style="outlineConnect=0;fontColor=#232F3E;gradientColor=none;fillColor=#D86613;strokeColor=none;dashed=0;verticalLabelPosition=bottom;verticalAlign=top;align=center;html=1;fontSize=12;fontStyle=0;aspect=fixed;pointerEvents=1;shape=mxgraph.aws4.instance2;" parent="15arPcZ15PRukcMCQNeJ-9" vertex="1">
          <mxGeometry x="390" y="110" width="30" height="30" as="geometry" />
        </mxCell>
        <mxCell id="15arPcZ15PRukcMCQNeJ-13" value="Worker" style="outlineConnect=0;fontColor=#232F3E;gradientColor=none;fillColor=#D86613;strokeColor=none;dashed=0;verticalLabelPosition=bottom;verticalAlign=top;align=center;html=1;fontSize=12;fontStyle=0;aspect=fixed;pointerEvents=1;shape=mxgraph.aws4.instance2;" parent="15arPcZ15PRukcMCQNeJ-9" vertex="1">
          <mxGeometry x="510" y="110" width="30" height="30" as="geometry" />
        </mxCell>
        <mxCell id="15arPcZ15PRukcMCQNeJ-14" value="Worker" style="outlineConnect=0;fontColor=#232F3E;gradientColor=none;fillColor=#D86613;strokeColor=none;dashed=0;verticalLabelPosition=bottom;verticalAlign=top;align=center;html=1;fontSize=12;fontStyle=0;aspect=fixed;pointerEvents=1;shape=mxgraph.aws4.instance2;" parent="15arPcZ15PRukcMCQNeJ-9" vertex="1">
          <mxGeometry x="510" y="165" width="30" height="30" as="geometry" />
        </mxCell>
        <mxCell id="15arPcZ15PRukcMCQNeJ-15" value="Worker" style="outlineConnect=0;fontColor=#232F3E;gradientColor=none;fillColor=#D86613;strokeColor=none;dashed=0;verticalLabelPosition=bottom;verticalAlign=top;align=center;html=1;fontSize=12;fontStyle=0;aspect=fixed;pointerEvents=1;shape=mxgraph.aws4.instance2;" parent="15arPcZ15PRukcMCQNeJ-9" vertex="1">
          <mxGeometry x="510" y="216.75" width="30" height="30" as="geometry" />
        </mxCell>
        <mxCell id="15arPcZ15PRukcMCQNeJ-17" value="&lt;i&gt;(4) init&lt;br&gt;&lt;/i&gt;" style="html=1;endArrow=open;elbow=vertical;startArrow=none;endFill=0;strokeColor=#545B64;rounded=0;" parent="15arPcZ15PRukcMCQNeJ-9" source="15arPcZ15PRukcMCQNeJ-10" target="15arPcZ15PRukcMCQNeJ-15" edge="1">
          <mxGeometry x="0.0612" y="18" width="100" relative="1" as="geometry">
            <mxPoint x="320" y="181.67711115677002" as="sourcePoint" />
            <mxPoint x="402.3399999999999" y="135.99" as="targetPoint" />
            <mxPoint as="offset" />
          </mxGeometry>
        </mxCell>
        <mxCell id="15arPcZ15PRukcMCQNeJ-18" value="" style="sketch=0;points=[[0,0,0],[0.25,0,0],[0.5,0,0],[0.75,0,0],[1,0,0],[0,1,0],[0.25,1,0],[0.5,1,0],[0.75,1,0],[1,1,0],[0,0.25,0],[0,0.5,0],[0,0.75,0],[1,0.25,0],[1,0.5,0],[1,0.75,0]];outlineConnect=0;fontColor=#232F3E;gradientColor=#F78E04;gradientDirection=north;fillColor=#D05C17;strokeColor=#ffffff;dashed=0;verticalLabelPosition=bottom;verticalAlign=top;align=center;html=1;fontSize=12;fontStyle=0;aspect=fixed;shape=mxgraph.aws4.resourceIcon;resIcon=mxgraph.aws4.lambda;" parent="15arPcZ15PRukcMCQNeJ-9" vertex="1">
          <mxGeometry x="60" y="70" width="46" height="46" as="geometry" />
        </mxCell>
        <mxCell id="15arPcZ15PRukcMCQNeJ-19" value="" style="sketch=0;outlineConnect=0;fontColor=#232F3E;gradientColor=none;fillColor=#D45B07;strokeColor=none;dashed=0;verticalLabelPosition=bottom;verticalAlign=top;align=center;html=1;fontSize=12;fontStyle=0;aspect=fixed;pointerEvents=1;shape=mxgraph.aws4.lambda_function;" parent="15arPcZ15PRukcMCQNeJ-9" vertex="1">
          <mxGeometry x="516" y="222.75" width="18" height="18" as="geometry" />
        </mxCell>
        <mxCell id="15arPcZ15PRukcMCQNeJ-20" value="&lt;i&gt;(3) reserve &lt;br&gt;sandbox&lt;/i&gt;" style="html=1;endArrow=open;elbow=vertical;startArrow=none;endFill=0;strokeColor=#545B64;rounded=0;" parent="P-X50N9pZkS2RA2nV46x-1" source="15arPcZ15PRukcMCQNeJ-3" target="15arPcZ15PRukcMCQNeJ-10" edge="1">
          <mxGeometry x="-0.2565" y="23" width="100" relative="1" as="geometry">
            <mxPoint x="340" y="340" as="sourcePoint" />
            <mxPoint x="400" y="373.4000000000001" as="targetPoint" />
            <mxPoint as="offset" />
          </mxGeometry>
        </mxCell>
        <mxCell id="15arPcZ15PRukcMCQNeJ-21" value="&lt;i&gt;(5) invoke&lt;br&gt;&lt;/i&gt;" style="html=1;endArrow=open;elbow=vertical;startArrow=none;endFill=0;strokeColor=#545B64;rounded=0;" parent="P-X50N9pZkS2RA2nV46x-1" source="15arPcZ15PRukcMCQNeJ-3" target="15arPcZ15PRukcMCQNeJ-15" edge="1">
          <mxGeometry x="-0.0323" y="-18" width="100" relative="1" as="geometry">
            <mxPoint x="470" y="341.67711115677" as="sourcePoint" />
            <mxPoint x="552.3399999999999" y="295.99" as="targetPoint" />
            <mxPoint as="offset" />
          </mxGeometry>
        </mxCell>
      </root>
    </mxGraphModel>
  </diagram>
  <diagram id="ZO7jeVPchuxlUNLw2vS6" name="Seite-23">
    <mxGraphModel dx="1793" dy="710" grid="1" gridSize="10" guides="1" tooltips="1" connect="1" arrows="1" fold="1" page="1" pageScale="1" pageWidth="827" pageHeight="1169" math="0" shadow="0">
      <root>
        <mxCell id="ojA2x7IgHOEgG_-Q7EQY-0" />
        <mxCell id="ojA2x7IgHOEgG_-Q7EQY-1" parent="ojA2x7IgHOEgG_-Q7EQY-0" />
        <mxCell id="jq0oimuIvSP5fQtmUDqT-0" value="Region" style="points=[[0,0],[0.25,0],[0.5,0],[0.75,0],[1,0],[1,0.25],[1,0.5],[1,0.75],[1,1],[0.75,1],[0.5,1],[0.25,1],[0,1],[0,0.75],[0,0.5],[0,0.25]];outlineConnect=0;gradientColor=none;html=1;whiteSpace=wrap;fontSize=12;fontStyle=0;shape=mxgraph.aws4.group;grIcon=mxgraph.aws4.group_region;strokeColor=#147EBA;fillColor=none;verticalAlign=top;align=left;spacingLeft=30;fontColor=#147EBA;dashed=0;" parent="ojA2x7IgHOEgG_-Q7EQY-1" vertex="1">
          <mxGeometry x="170" y="180" width="570" height="300" as="geometry" />
        </mxCell>
        <mxCell id="jq0oimuIvSP5fQtmUDqT-2" value="Front End&lt;br&gt;Invoke" style="outlineConnect=0;fontColor=#232F3E;gradientColor=none;fillColor=#D86613;strokeColor=none;dashed=0;verticalLabelPosition=bottom;verticalAlign=top;align=center;html=1;fontSize=12;fontStyle=0;aspect=fixed;pointerEvents=1;shape=mxgraph.aws4.instance2;" parent="ojA2x7IgHOEgG_-Q7EQY-1" vertex="1">
          <mxGeometry x="310" y="260" width="30" height="30" as="geometry" />
        </mxCell>
        <mxCell id="jq0oimuIvSP5fQtmUDqT-3" value="Front End&lt;br&gt;Invoke" style="outlineConnect=0;fontColor=#232F3E;gradientColor=none;fillColor=#D86613;strokeColor=none;dashed=0;verticalLabelPosition=bottom;verticalAlign=top;align=center;html=1;fontSize=12;fontStyle=0;aspect=fixed;pointerEvents=1;shape=mxgraph.aws4.instance2;" parent="ojA2x7IgHOEgG_-Q7EQY-1" vertex="1">
          <mxGeometry x="310" y="366.75" width="30" height="30" as="geometry" />
        </mxCell>
        <mxCell id="jq0oimuIvSP5fQtmUDqT-4" value="Lambda&lt;br&gt;Customer" style="outlineConnect=0;fontColor=#232F3E;gradientColor=none;fillColor=#232F3E;strokeColor=none;dashed=0;verticalLabelPosition=bottom;verticalAlign=top;align=center;html=1;fontSize=12;fontStyle=0;aspect=fixed;pointerEvents=1;shape=mxgraph.aws4.users;" parent="ojA2x7IgHOEgG_-Q7EQY-1" vertex="1">
          <mxGeometry x="40" y="305.5" width="49" height="49" as="geometry" />
        </mxCell>
        <mxCell id="jq0oimuIvSP5fQtmUDqT-5" value="Worker Manager" style="outlineConnect=0;fontColor=#232F3E;gradientColor=none;fillColor=#D86613;strokeColor=none;dashed=0;verticalLabelPosition=bottom;verticalAlign=top;align=center;html=1;fontSize=12;fontStyle=0;aspect=fixed;pointerEvents=1;shape=mxgraph.aws4.instance2;" parent="ojA2x7IgHOEgG_-Q7EQY-1" vertex="1">
          <mxGeometry x="420" y="260" width="30" height="30" as="geometry" />
        </mxCell>
        <mxCell id="jq0oimuIvSP5fQtmUDqT-6" value="Application&amp;nbsp;&lt;br&gt;Load Balancer" style="sketch=0;outlineConnect=0;fontColor=#232F3E;gradientColor=none;fillColor=#4D27AA;strokeColor=none;dashed=0;verticalLabelPosition=bottom;verticalAlign=top;align=center;html=1;fontSize=12;fontStyle=0;aspect=fixed;pointerEvents=1;shape=mxgraph.aws4.application_load_balancer;" parent="ojA2x7IgHOEgG_-Q7EQY-1" vertex="1">
          <mxGeometry x="202" y="305.5" width="49" height="49" as="geometry" />
        </mxCell>
        <mxCell id="jq0oimuIvSP5fQtmUDqT-7" value="&lt;i&gt;(1) invoke&lt;/i&gt;" style="edgeStyle=orthogonalEdgeStyle;html=1;endArrow=open;elbow=vertical;startArrow=none;endFill=0;strokeColor=#545B64;rounded=0;" parent="ojA2x7IgHOEgG_-Q7EQY-1" source="jq0oimuIvSP5fQtmUDqT-4" edge="1">
          <mxGeometry x="-0.2613" y="20" width="100" relative="1" as="geometry">
            <mxPoint x="300" y="380" as="sourcePoint" />
            <mxPoint x="200" y="330" as="targetPoint" />
            <mxPoint as="offset" />
          </mxGeometry>
        </mxCell>
        <mxCell id="jq0oimuIvSP5fQtmUDqT-8" value="&lt;i&gt;(2) invoke&lt;/i&gt;" style="html=1;endArrow=open;elbow=vertical;startArrow=none;endFill=0;strokeColor=#545B64;rounded=0;" parent="ojA2x7IgHOEgG_-Q7EQY-1" target="jq0oimuIvSP5fQtmUDqT-3" edge="1">
          <mxGeometry x="-0.2366" y="15" width="100" relative="1" as="geometry">
            <mxPoint x="250" y="340" as="sourcePoint" />
            <mxPoint x="210" y="340" as="targetPoint" />
            <mxPoint as="offset" />
          </mxGeometry>
        </mxCell>
        <mxCell id="jq0oimuIvSP5fQtmUDqT-9" value="AWS Cloud" style="points=[[0,0],[0.25,0],[0.5,0],[0.75,0],[1,0],[1,0.25],[1,0.5],[1,0.75],[1,1],[0.75,1],[0.5,1],[0.25,1],[0,1],[0,0.75],[0,0.5],[0,0.25]];outlineConnect=0;gradientColor=none;html=1;whiteSpace=wrap;fontSize=12;fontStyle=0;container=1;pointerEvents=0;collapsible=0;recursiveResize=0;shape=mxgraph.aws4.group;grIcon=mxgraph.aws4.group_aws_cloud;strokeColor=#232F3E;fillColor=none;verticalAlign=top;align=left;spacingLeft=30;fontColor=#232F3E;dashed=0;" parent="ojA2x7IgHOEgG_-Q7EQY-1" vertex="1">
          <mxGeometry x="140" y="150" width="630" height="360" as="geometry" />
        </mxCell>
        <mxCell id="jq0oimuIvSP5fQtmUDqT-10" value="Worker Manager" style="outlineConnect=0;fontColor=#232F3E;gradientColor=none;fillColor=#D86613;strokeColor=none;dashed=0;verticalLabelPosition=bottom;verticalAlign=top;align=center;html=1;fontSize=12;fontStyle=0;aspect=fixed;pointerEvents=1;shape=mxgraph.aws4.instance2;" parent="jq0oimuIvSP5fQtmUDqT-9" vertex="1">
          <mxGeometry x="280" y="165" width="30" height="30" as="geometry" />
        </mxCell>
        <mxCell id="jq0oimuIvSP5fQtmUDqT-11" value="Placement&lt;br&gt;Service" style="outlineConnect=0;fontColor=#232F3E;gradientColor=none;fillColor=#D86613;strokeColor=none;dashed=0;verticalLabelPosition=bottom;verticalAlign=top;align=center;html=1;fontSize=12;fontStyle=0;aspect=fixed;pointerEvents=1;shape=mxgraph.aws4.instance2;" parent="jq0oimuIvSP5fQtmUDqT-9" vertex="1">
          <mxGeometry x="390" y="110" width="30" height="30" as="geometry" />
        </mxCell>
        <mxCell id="jq0oimuIvSP5fQtmUDqT-12" value="&lt;i&gt;(4) claim&lt;br&gt;worker&lt;br&gt;&lt;/i&gt;" style="html=1;endArrow=open;elbow=vertical;startArrow=none;endFill=0;strokeColor=#545B64;rounded=0;entryX=0.078;entryY=0.533;entryDx=0;entryDy=0;entryPerimeter=0;" parent="jq0oimuIvSP5fQtmUDqT-9" source="jq0oimuIvSP5fQtmUDqT-10" target="jq0oimuIvSP5fQtmUDqT-11" edge="1">
          <mxGeometry x="-0.0134" y="22" width="100" relative="1" as="geometry">
            <mxPoint x="210" y="234.69318181818176" as="sourcePoint" />
            <mxPoint x="290" y="197.05681818181824" as="targetPoint" />
            <mxPoint as="offset" />
          </mxGeometry>
        </mxCell>
        <mxCell id="jq0oimuIvSP5fQtmUDqT-13" value="Worker" style="outlineConnect=0;fontColor=#232F3E;gradientColor=none;fillColor=#D86613;strokeColor=none;dashed=0;verticalLabelPosition=bottom;verticalAlign=top;align=center;html=1;fontSize=12;fontStyle=0;aspect=fixed;pointerEvents=1;shape=mxgraph.aws4.instance2;" parent="jq0oimuIvSP5fQtmUDqT-9" vertex="1">
          <mxGeometry x="510" y="110" width="30" height="30" as="geometry" />
        </mxCell>
        <mxCell id="jq0oimuIvSP5fQtmUDqT-14" value="Worker" style="outlineConnect=0;fontColor=#232F3E;gradientColor=none;fillColor=#D86613;strokeColor=none;dashed=0;verticalLabelPosition=bottom;verticalAlign=top;align=center;html=1;fontSize=12;fontStyle=0;aspect=fixed;pointerEvents=1;shape=mxgraph.aws4.instance2;" parent="jq0oimuIvSP5fQtmUDqT-9" vertex="1">
          <mxGeometry x="510" y="165" width="30" height="30" as="geometry" />
        </mxCell>
        <mxCell id="jq0oimuIvSP5fQtmUDqT-15" value="Worker" style="outlineConnect=0;fontColor=#232F3E;gradientColor=none;fillColor=#D86613;strokeColor=none;dashed=0;verticalLabelPosition=bottom;verticalAlign=top;align=center;html=1;fontSize=12;fontStyle=0;aspect=fixed;pointerEvents=1;shape=mxgraph.aws4.instance2;" parent="jq0oimuIvSP5fQtmUDqT-9" vertex="1">
          <mxGeometry x="510" y="216.75" width="30" height="30" as="geometry" />
        </mxCell>
        <mxCell id="jq0oimuIvSP5fQtmUDqT-16" value="&lt;i&gt;(5) select&lt;br&gt;worker&lt;br&gt;&lt;/i&gt;" style="html=1;endArrow=open;elbow=vertical;startArrow=none;endFill=0;strokeColor=#545B64;rounded=0;" parent="jq0oimuIvSP5fQtmUDqT-9" source="jq0oimuIvSP5fQtmUDqT-11" target="jq0oimuIvSP5fQtmUDqT-15" edge="1">
          <mxGeometry x="-0.1271" y="31" width="100" relative="1" as="geometry">
            <mxPoint x="320" y="181.67711115677002" as="sourcePoint" />
            <mxPoint x="402.3399999999999" y="135.99" as="targetPoint" />
            <mxPoint as="offset" />
          </mxGeometry>
        </mxCell>
        <mxCell id="jq0oimuIvSP5fQtmUDqT-17" value="&lt;i&gt;(6) init&lt;br&gt;&lt;/i&gt;" style="html=1;endArrow=open;elbow=vertical;startArrow=none;endFill=0;strokeColor=#545B64;rounded=0;" parent="jq0oimuIvSP5fQtmUDqT-9" source="jq0oimuIvSP5fQtmUDqT-10" target="jq0oimuIvSP5fQtmUDqT-15" edge="1">
          <mxGeometry x="0.0612" y="18" width="100" relative="1" as="geometry">
            <mxPoint x="320" y="181.67711115677002" as="sourcePoint" />
            <mxPoint x="402.3399999999999" y="135.99" as="targetPoint" />
            <mxPoint as="offset" />
          </mxGeometry>
        </mxCell>
        <mxCell id="jq0oimuIvSP5fQtmUDqT-18" value="" style="sketch=0;points=[[0,0,0],[0.25,0,0],[0.5,0,0],[0.75,0,0],[1,0,0],[0,1,0],[0.25,1,0],[0.5,1,0],[0.75,1,0],[1,1,0],[0,0.25,0],[0,0.5,0],[0,0.75,0],[1,0.25,0],[1,0.5,0],[1,0.75,0]];outlineConnect=0;fontColor=#232F3E;gradientColor=#F78E04;gradientDirection=north;fillColor=#D05C17;strokeColor=#ffffff;dashed=0;verticalLabelPosition=bottom;verticalAlign=top;align=center;html=1;fontSize=12;fontStyle=0;aspect=fixed;shape=mxgraph.aws4.resourceIcon;resIcon=mxgraph.aws4.lambda;" parent="jq0oimuIvSP5fQtmUDqT-9" vertex="1">
          <mxGeometry x="60" y="70" width="46" height="46" as="geometry" />
        </mxCell>
        <mxCell id="jq0oimuIvSP5fQtmUDqT-19" value="" style="sketch=0;outlineConnect=0;fontColor=#232F3E;gradientColor=none;fillColor=#D45B07;strokeColor=none;dashed=0;verticalLabelPosition=bottom;verticalAlign=top;align=center;html=1;fontSize=12;fontStyle=0;aspect=fixed;pointerEvents=1;shape=mxgraph.aws4.lambda_function;" parent="jq0oimuIvSP5fQtmUDqT-9" vertex="1">
          <mxGeometry x="516" y="222.75" width="18" height="18" as="geometry" />
        </mxCell>
        <mxCell id="muSd36JMoJbijeGoVZl3-0" value="VPC" style="points=[[0,0],[0.25,0],[0.5,0],[0.75,0],[1,0],[1,0.25],[1,0.5],[1,0.75],[1,1],[0.75,1],[0.5,1],[0.25,1],[0,1],[0,0.75],[0,0.5],[0,0.25]];outlineConnect=0;gradientColor=none;html=1;whiteSpace=wrap;fontSize=12;fontStyle=0;shape=mxgraph.aws4.group;grIcon=mxgraph.aws4.group_vpc;strokeColor=#248814;fillColor=none;verticalAlign=top;align=left;spacingLeft=30;fontColor=#AAB7B8;dashed=0;" parent="jq0oimuIvSP5fQtmUDqT-9" vertex="1">
          <mxGeometry x="60" y="62.5" width="520" height="235" as="geometry" />
        </mxCell>
        <mxCell id="jq0oimuIvSP5fQtmUDqT-20" value="&lt;i&gt;(3) reserve &lt;br&gt;sandbox&lt;/i&gt;" style="html=1;endArrow=open;elbow=vertical;startArrow=none;endFill=0;strokeColor=#545B64;rounded=0;" parent="ojA2x7IgHOEgG_-Q7EQY-1" source="jq0oimuIvSP5fQtmUDqT-3" target="jq0oimuIvSP5fQtmUDqT-10" edge="1">
          <mxGeometry x="-0.2565" y="23" width="100" relative="1" as="geometry">
            <mxPoint x="340" y="340" as="sourcePoint" />
            <mxPoint x="400" y="373.4000000000001" as="targetPoint" />
            <mxPoint as="offset" />
          </mxGeometry>
        </mxCell>
        <mxCell id="jq0oimuIvSP5fQtmUDqT-21" value="&lt;i&gt;(7) invoke&lt;br&gt;&lt;/i&gt;" style="html=1;endArrow=open;elbow=vertical;startArrow=none;endFill=0;strokeColor=#545B64;rounded=0;" parent="ojA2x7IgHOEgG_-Q7EQY-1" source="jq0oimuIvSP5fQtmUDqT-3" target="jq0oimuIvSP5fQtmUDqT-15" edge="1">
          <mxGeometry x="-0.0323" y="-18" width="100" relative="1" as="geometry">
            <mxPoint x="470" y="341.67711115677" as="sourcePoint" />
            <mxPoint x="552.3399999999999" y="295.99" as="targetPoint" />
            <mxPoint as="offset" />
          </mxGeometry>
        </mxCell>
      </root>
    </mxGraphModel>
  </diagram>
  <diagram id="DHQyI-KttJ8yVuXWWn15" name="Seite-24">
    <mxGraphModel dx="1793" dy="710" grid="1" gridSize="10" guides="1" tooltips="1" connect="1" arrows="1" fold="1" page="1" pageScale="1" pageWidth="827" pageHeight="1169" math="0" shadow="0">
      <root>
        <mxCell id="owXtbQJdnDH2mklxPMKy-0" />
        <mxCell id="owXtbQJdnDH2mklxPMKy-1" parent="owXtbQJdnDH2mklxPMKy-0" />
        <mxCell id="ia9NGcA2xKYSbUIWttnW-0" value="Region" style="points=[[0,0],[0.25,0],[0.5,0],[0.75,0],[1,0],[1,0.25],[1,0.5],[1,0.75],[1,1],[0.75,1],[0.5,1],[0.25,1],[0,1],[0,0.75],[0,0.5],[0,0.25]];outlineConnect=0;gradientColor=none;html=1;whiteSpace=wrap;fontSize=12;fontStyle=0;shape=mxgraph.aws4.group;grIcon=mxgraph.aws4.group_region;strokeColor=#147EBA;fillColor=none;verticalAlign=top;align=left;spacingLeft=30;fontColor=#147EBA;dashed=0;" parent="owXtbQJdnDH2mklxPMKy-1" vertex="1">
          <mxGeometry x="170" y="130" width="570" height="430" as="geometry" />
        </mxCell>
        <mxCell id="ia9NGcA2xKYSbUIWttnW-8" value="AWS Cloud" style="points=[[0,0],[0.25,0],[0.5,0],[0.75,0],[1,0],[1,0.25],[1,0.5],[1,0.75],[1,1],[0.75,1],[0.5,1],[0.25,1],[0,1],[0,0.75],[0,0.5],[0,0.25]];outlineConnect=0;gradientColor=none;html=1;whiteSpace=wrap;fontSize=12;fontStyle=0;container=1;pointerEvents=0;collapsible=0;recursiveResize=0;shape=mxgraph.aws4.group;grIcon=mxgraph.aws4.group_aws_cloud;strokeColor=#232F3E;fillColor=none;verticalAlign=top;align=left;spacingLeft=30;fontColor=#232F3E;dashed=0;" parent="owXtbQJdnDH2mklxPMKy-1" vertex="1">
          <mxGeometry x="140" y="100" width="630" height="490" as="geometry" />
        </mxCell>
        <mxCell id="ia9NGcA2xKYSbUIWttnW-19" value="AWS managed VPC" style="points=[[0,0],[0.25,0],[0.5,0],[0.75,0],[1,0],[1,0.25],[1,0.5],[1,0.75],[1,1],[0.75,1],[0.5,1],[0.25,1],[0,1],[0,0.75],[0,0.5],[0,0.25]];outlineConnect=0;gradientColor=none;html=1;whiteSpace=wrap;fontSize=12;fontStyle=0;shape=mxgraph.aws4.group;grIcon=mxgraph.aws4.group_vpc;strokeColor=#248814;fillColor=none;verticalAlign=top;align=left;spacingLeft=30;fontColor=#AAB7B8;dashed=0;" parent="ia9NGcA2xKYSbUIWttnW-8" vertex="1">
          <mxGeometry x="60.5" y="140" width="375" height="300" as="geometry" />
        </mxCell>
        <mxCell id="ia9NGcA2xKYSbUIWttnW-9" value="Worker Manager" style="outlineConnect=0;fontColor=#232F3E;gradientColor=none;fillColor=#D86613;strokeColor=none;dashed=0;verticalLabelPosition=bottom;verticalAlign=top;align=center;html=1;fontSize=12;fontStyle=0;aspect=fixed;pointerEvents=1;shape=mxgraph.aws4.instance2;" parent="ia9NGcA2xKYSbUIWttnW-8" vertex="1">
          <mxGeometry x="266" y="255" width="30" height="30" as="geometry" />
        </mxCell>
        <mxCell id="ia9NGcA2xKYSbUIWttnW-10" value="Placement&lt;br&gt;Service" style="outlineConnect=0;fontColor=#232F3E;gradientColor=none;fillColor=#D86613;strokeColor=none;dashed=0;verticalLabelPosition=bottom;verticalAlign=top;align=center;html=1;fontSize=12;fontStyle=0;aspect=fixed;pointerEvents=1;shape=mxgraph.aws4.instance2;" parent="ia9NGcA2xKYSbUIWttnW-8" vertex="1">
          <mxGeometry x="352" y="255" width="30" height="30" as="geometry" />
        </mxCell>
        <mxCell id="ia9NGcA2xKYSbUIWttnW-12" value="Worker" style="outlineConnect=0;fontColor=#232F3E;gradientColor=none;fillColor=#D86613;strokeColor=none;dashed=0;verticalLabelPosition=bottom;verticalAlign=top;align=center;html=1;fontSize=12;fontStyle=0;aspect=fixed;pointerEvents=1;shape=mxgraph.aws4.instance2;" parent="ia9NGcA2xKYSbUIWttnW-8" vertex="1">
          <mxGeometry x="82" y="359" width="30" height="30" as="geometry" />
        </mxCell>
        <mxCell id="ia9NGcA2xKYSbUIWttnW-13" value="Worker" style="outlineConnect=0;fontColor=#232F3E;gradientColor=none;fillColor=#D86613;strokeColor=none;dashed=0;verticalLabelPosition=bottom;verticalAlign=top;align=center;html=1;fontSize=12;fontStyle=0;aspect=fixed;pointerEvents=1;shape=mxgraph.aws4.instance2;" parent="ia9NGcA2xKYSbUIWttnW-8" vertex="1">
          <mxGeometry x="170.5" y="359" width="30" height="30" as="geometry" />
        </mxCell>
        <mxCell id="ia9NGcA2xKYSbUIWttnW-14" value="Worker" style="outlineConnect=0;fontColor=#232F3E;gradientColor=none;fillColor=#D86613;strokeColor=none;dashed=0;verticalLabelPosition=bottom;verticalAlign=top;align=center;html=1;fontSize=12;fontStyle=0;aspect=fixed;pointerEvents=1;shape=mxgraph.aws4.instance2;" parent="ia9NGcA2xKYSbUIWttnW-8" vertex="1">
          <mxGeometry x="266" y="359" width="30" height="30" as="geometry" />
        </mxCell>
        <mxCell id="ia9NGcA2xKYSbUIWttnW-17" value="Lambda" style="sketch=0;points=[[0,0,0],[0.25,0,0],[0.5,0,0],[0.75,0,0],[1,0,0],[0,1,0],[0.25,1,0],[0.5,1,0],[0.75,1,0],[1,1,0],[0,0.25,0],[0,0.5,0],[0,0.75,0],[1,0.25,0],[1,0.5,0],[1,0.75,0]];outlineConnect=0;fontColor=#232F3E;gradientColor=#F78E04;gradientDirection=north;fillColor=#D05C17;strokeColor=#ffffff;dashed=0;verticalLabelPosition=bottom;verticalAlign=top;align=center;html=1;fontSize=12;fontStyle=0;aspect=fixed;shape=mxgraph.aws4.resourceIcon;resIcon=mxgraph.aws4.lambda;" parent="ia9NGcA2xKYSbUIWttnW-8" vertex="1">
          <mxGeometry x="370" y="152" width="46" height="46" as="geometry" />
        </mxCell>
        <mxCell id="ia9NGcA2xKYSbUIWttnW-18" value="" style="sketch=0;outlineConnect=0;fontColor=#232F3E;gradientColor=none;fillColor=#D45B07;strokeColor=none;dashed=0;verticalLabelPosition=bottom;verticalAlign=top;align=center;html=1;fontSize=12;fontStyle=0;aspect=fixed;pointerEvents=1;shape=mxgraph.aws4.lambda_function;" parent="ia9NGcA2xKYSbUIWttnW-8" vertex="1">
          <mxGeometry x="272" y="365" width="18" height="18" as="geometry" />
        </mxCell>
        <mxCell id="ia9NGcA2xKYSbUIWttnW-23" value="Worker" style="outlineConnect=0;fontColor=#232F3E;gradientColor=none;fillColor=#D86613;strokeColor=none;dashed=0;verticalLabelPosition=bottom;verticalAlign=top;align=center;html=1;fontSize=12;fontStyle=0;aspect=fixed;pointerEvents=1;shape=mxgraph.aws4.instance2;" parent="ia9NGcA2xKYSbUIWttnW-8" vertex="1">
          <mxGeometry x="352" y="359" width="30" height="30" as="geometry" />
        </mxCell>
        <mxCell id="ia9NGcA2xKYSbUIWttnW-2" value="Front End&lt;br&gt;Invoke" style="outlineConnect=0;fontColor=#232F3E;gradientColor=none;fillColor=#D86613;strokeColor=none;dashed=0;verticalLabelPosition=bottom;verticalAlign=top;align=center;html=1;fontSize=12;fontStyle=0;aspect=fixed;pointerEvents=1;shape=mxgraph.aws4.instance2;" parent="ia9NGcA2xKYSbUIWttnW-8" vertex="1">
          <mxGeometry x="132" y="255" width="30" height="30" as="geometry" />
        </mxCell>
        <mxCell id="ia9NGcA2xKYSbUIWttnW-21" value="&lt;i&gt;invoke&lt;br&gt;&lt;/i&gt;" style="html=1;endArrow=open;elbow=vertical;startArrow=none;endFill=0;strokeColor=#545B64;rounded=0;" parent="ia9NGcA2xKYSbUIWttnW-8" source="ia9NGcA2xKYSbUIWttnW-2" target="ia9NGcA2xKYSbUIWttnW-14" edge="1">
          <mxGeometry x="-0.0323" y="-18" width="100" relative="1" as="geometry">
            <mxPoint x="242" y="210.67711115677002" as="sourcePoint" />
            <mxPoint x="324.3399999999999" y="164.99" as="targetPoint" />
            <mxPoint as="offset" />
          </mxGeometry>
        </mxCell>
        <mxCell id="tvwEkDlQlnjuOqG-tz1r-1" value="S3" style="sketch=0;points=[[0,0,0],[0.25,0,0],[0.5,0,0],[0.75,0,0],[1,0,0],[0,1,0],[0.25,1,0],[0.5,1,0],[0.75,1,0],[1,1,0],[0,0.25,0],[0,0.5,0],[0,0.75,0],[1,0.25,0],[1,0.5,0],[1,0.75,0]];outlineConnect=0;fontColor=#232F3E;gradientColor=#60A337;gradientDirection=north;fillColor=#277116;strokeColor=#ffffff;dashed=0;verticalLabelPosition=bottom;verticalAlign=top;align=center;html=1;fontSize=12;fontStyle=0;aspect=fixed;shape=mxgraph.aws4.resourceIcon;resIcon=mxgraph.aws4.s3;" parent="ia9NGcA2xKYSbUIWttnW-8" vertex="1">
          <mxGeometry x="530" y="140" width="36" height="36" as="geometry" />
        </mxCell>
        <mxCell id="tvwEkDlQlnjuOqG-tz1r-0" value="ECR" style="sketch=0;points=[[0,0,0],[0.25,0,0],[0.5,0,0],[0.75,0,0],[1,0,0],[0,1,0],[0.25,1,0],[0.5,1,0],[0.75,1,0],[1,1,0],[0,0.25,0],[0,0.5,0],[0,0.75,0],[1,0.25,0],[1,0.5,0],[1,0.75,0]];outlineConnect=0;fontColor=#232F3E;gradientColor=#F78E04;gradientDirection=north;fillColor=#D05C17;strokeColor=#ffffff;dashed=0;verticalLabelPosition=bottom;verticalAlign=top;align=center;html=1;fontSize=12;fontStyle=0;aspect=fixed;shape=mxgraph.aws4.resourceIcon;resIcon=mxgraph.aws4.ecr;" parent="ia9NGcA2xKYSbUIWttnW-8" vertex="1">
          <mxGeometry x="530" y="219" width="36" height="36" as="geometry" />
        </mxCell>
        <mxCell id="tvwEkDlQlnjuOqG-tz1r-2" value="CloudWatch" style="sketch=0;points=[[0,0,0],[0.25,0,0],[0.5,0,0],[0.75,0,0],[1,0,0],[0,1,0],[0.25,1,0],[0.5,1,0],[0.75,1,0],[1,1,0],[0,0.25,0],[0,0.5,0],[0,0.75,0],[1,0.25,0],[1,0.5,0],[1,0.75,0]];points=[[0,0,0],[0.25,0,0],[0.5,0,0],[0.75,0,0],[1,0,0],[0,1,0],[0.25,1,0],[0.5,1,0],[0.75,1,0],[1,1,0],[0,0.25,0],[0,0.5,0],[0,0.75,0],[1,0.25,0],[1,0.5,0],[1,0.75,0]];outlineConnect=0;fontColor=#232F3E;gradientColor=#F34482;gradientDirection=north;fillColor=#BC1356;strokeColor=#ffffff;dashed=0;verticalLabelPosition=bottom;verticalAlign=top;align=center;html=1;fontSize=12;fontStyle=0;aspect=fixed;shape=mxgraph.aws4.resourceIcon;resIcon=mxgraph.aws4.cloudwatch_2;" parent="ia9NGcA2xKYSbUIWttnW-8" vertex="1">
          <mxGeometry x="530" y="300" width="36" height="36" as="geometry" />
        </mxCell>
        <mxCell id="tvwEkDlQlnjuOqG-tz1r-4" value="API Gateway" style="sketch=0;points=[[0,0,0],[0.25,0,0],[0.5,0,0],[0.75,0,0],[1,0,0],[0,1,0],[0.25,1,0],[0.5,1,0],[0.75,1,0],[1,1,0],[0,0.25,0],[0,0.5,0],[0,0.75,0],[1,0.25,0],[1,0.5,0],[1,0.75,0]];outlineConnect=0;fontColor=#232F3E;gradientColor=#945DF2;gradientDirection=north;fillColor=#5A30B5;strokeColor=#ffffff;dashed=0;verticalLabelPosition=bottom;verticalAlign=top;align=center;html=1;fontSize=12;fontStyle=0;aspect=fixed;shape=mxgraph.aws4.resourceIcon;resIcon=mxgraph.aws4.api_gateway;" parent="ia9NGcA2xKYSbUIWttnW-8" vertex="1">
          <mxGeometry x="216" y="60" width="36" height="36" as="geometry" />
        </mxCell>
        <mxCell id="ia9NGcA2xKYSbUIWttnW-5" value="Application&amp;nbsp;&lt;br&gt;Load Balancer" style="sketch=0;outlineConnect=0;fontColor=#232F3E;gradientColor=none;fillColor=#4D27AA;strokeColor=none;dashed=0;verticalLabelPosition=bottom;verticalAlign=top;align=center;html=1;fontSize=12;fontStyle=0;aspect=fixed;pointerEvents=1;shape=mxgraph.aws4.application_load_balancer;" parent="ia9NGcA2xKYSbUIWttnW-8" vertex="1">
          <mxGeometry x="216" y="157" width="36" height="36" as="geometry" />
        </mxCell>
        <mxCell id="tvwEkDlQlnjuOqG-tz1r-7" value="&lt;i&gt;invoke&lt;br&gt;&lt;/i&gt;" style="html=1;endArrow=open;elbow=vertical;startArrow=none;endFill=0;strokeColor=#545B64;rounded=0;" parent="ia9NGcA2xKYSbUIWttnW-8" source="ia9NGcA2xKYSbUIWttnW-5" edge="1">
          <mxGeometry x="-0.0323" y="-18" width="100" relative="1" as="geometry">
            <mxPoint x="172" y="291.641791044776" as="sourcePoint" />
            <mxPoint x="147" y="260" as="targetPoint" />
            <mxPoint as="offset" />
          </mxGeometry>
        </mxCell>
        <mxCell id="tvwEkDlQlnjuOqG-tz1r-8" value="&lt;i&gt;pulls Zipfiles&lt;br&gt;&lt;/i&gt;" style="html=1;endArrow=open;elbow=vertical;startArrow=none;endFill=0;strokeColor=#545B64;rounded=0;dashed=1;exitX=1;exitY=0.5;exitDx=0;exitDy=0;exitPerimeter=0;" parent="ia9NGcA2xKYSbUIWttnW-8" source="ia9NGcA2xKYSbUIWttnW-17" target="tvwEkDlQlnjuOqG-tz1r-1" edge="1">
          <mxGeometry x="0.2982" y="15" width="100" relative="1" as="geometry">
            <mxPoint x="226" y="202.58620689655163" as="sourcePoint" />
            <mxPoint x="157" y="270" as="targetPoint" />
            <mxPoint as="offset" />
          </mxGeometry>
        </mxCell>
        <mxCell id="tvwEkDlQlnjuOqG-tz1r-9" value="&lt;i&gt;pulls images&lt;br&gt;&lt;/i&gt;" style="html=1;endArrow=open;elbow=vertical;startArrow=none;endFill=0;strokeColor=#545B64;rounded=0;dashed=1;exitX=1;exitY=0.5;exitDx=0;exitDy=0;exitPerimeter=0;entryX=0;entryY=0.5;entryDx=0;entryDy=0;entryPerimeter=0;" parent="ia9NGcA2xKYSbUIWttnW-8" source="ia9NGcA2xKYSbUIWttnW-17" target="tvwEkDlQlnjuOqG-tz1r-0" edge="1">
          <mxGeometry x="0.5681" y="25" width="100" relative="1" as="geometry">
            <mxPoint x="426" y="185" as="sourcePoint" />
            <mxPoint x="540" y="185" as="targetPoint" />
            <mxPoint as="offset" />
          </mxGeometry>
        </mxCell>
        <mxCell id="tvwEkDlQlnjuOqG-tz1r-10" value="&lt;i&gt;streams logs&lt;br&gt;&lt;/i&gt;" style="html=1;endArrow=open;elbow=vertical;startArrow=none;endFill=0;strokeColor=#545B64;rounded=0;dashed=1;exitX=1;exitY=0.5;exitDx=0;exitDy=0;exitPerimeter=0;entryX=0;entryY=0.5;entryDx=0;entryDy=0;entryPerimeter=0;" parent="ia9NGcA2xKYSbUIWttnW-8" source="ia9NGcA2xKYSbUIWttnW-17" target="tvwEkDlQlnjuOqG-tz1r-2" edge="1">
          <mxGeometry x="0.3048" y="-25" width="100" relative="1" as="geometry">
            <mxPoint x="426" y="185" as="sourcePoint" />
            <mxPoint x="540" y="268" as="targetPoint" />
            <mxPoint y="1" as="offset" />
          </mxGeometry>
        </mxCell>
        <mxCell id="tvwEkDlQlnjuOqG-tz1r-3" value="CloudFormation" style="sketch=0;points=[[0,0,0],[0.25,0,0],[0.5,0,0],[0.75,0,0],[1,0,0],[0,1,0],[0.25,1,0],[0.5,1,0],[0.75,1,0],[1,1,0],[0,0.25,0],[0,0.5,0],[0,0.75,0],[1,0.25,0],[1,0.5,0],[1,0.75,0]];points=[[0,0,0],[0.25,0,0],[0.5,0,0],[0.75,0,0],[1,0,0],[0,1,0],[0.25,1,0],[0.5,1,0],[0.75,1,0],[1,1,0],[0,0.25,0],[0,0.5,0],[0,0.75,0],[1,0.25,0],[1,0.5,0],[1,0.75,0]];outlineConnect=0;fontColor=#232F3E;gradientColor=#F34482;gradientDirection=north;fillColor=#BC1356;strokeColor=#ffffff;dashed=0;verticalLabelPosition=bottom;verticalAlign=top;align=center;html=1;fontSize=12;fontStyle=0;aspect=fixed;shape=mxgraph.aws4.resourceIcon;resIcon=mxgraph.aws4.cloudformation;" parent="ia9NGcA2xKYSbUIWttnW-8" vertex="1">
          <mxGeometry x="530" y="70" width="36" height="36" as="geometry" />
        </mxCell>
        <mxCell id="tvwEkDlQlnjuOqG-tz1r-11" value="&lt;i&gt;deploys functions&lt;br&gt;&lt;/i&gt;" style="html=1;endArrow=open;elbow=vertical;startArrow=none;endFill=0;strokeColor=#545B64;rounded=0;dashed=1;exitX=0;exitY=0.5;exitDx=0;exitDy=0;exitPerimeter=0;entryX=1;entryY=0;entryDx=0;entryDy=0;entryPerimeter=0;" parent="ia9NGcA2xKYSbUIWttnW-8" source="tvwEkDlQlnjuOqG-tz1r-3" target="ia9NGcA2xKYSbUIWttnW-17" edge="1">
          <mxGeometry x="0.157" y="-29" width="100" relative="1" as="geometry">
            <mxPoint x="436" y="195" as="sourcePoint" />
            <mxPoint x="550" y="278" as="targetPoint" />
            <mxPoint as="offset" />
          </mxGeometry>
        </mxCell>
        <mxCell id="tvwEkDlQlnjuOqG-tz1r-12" value="&lt;i&gt;manages APIs&lt;br&gt;&lt;/i&gt;" style="html=1;endArrow=open;elbow=vertical;startArrow=none;endFill=0;strokeColor=#545B64;rounded=0;dashed=1;exitX=0;exitY=0.5;exitDx=0;exitDy=0;exitPerimeter=0;entryX=1;entryY=0.5;entryDx=0;entryDy=0;entryPerimeter=0;" parent="ia9NGcA2xKYSbUIWttnW-8" source="tvwEkDlQlnjuOqG-tz1r-3" target="tvwEkDlQlnjuOqG-tz1r-4" edge="1">
          <mxGeometry x="0.0105" y="-13" width="100" relative="1" as="geometry">
            <mxPoint x="540" y="98" as="sourcePoint" />
            <mxPoint x="426" y="162" as="targetPoint" />
            <mxPoint as="offset" />
          </mxGeometry>
        </mxCell>
        <mxCell id="eRDRd6lrIG0_TiKmipwT-1" value="X-Ray" style="sketch=0;points=[[0,0,0],[0.25,0,0],[0.5,0,0],[0.75,0,0],[1,0,0],[0,1,0],[0.25,1,0],[0.5,1,0],[0.75,1,0],[1,1,0],[0,0.25,0],[0,0.5,0],[0,0.75,0],[1,0.25,0],[1,0.5,0],[1,0.75,0]];outlineConnect=0;fontColor=#232F3E;gradientColor=#4D72F3;gradientDirection=north;fillColor=#3334B9;strokeColor=#ffffff;dashed=0;verticalLabelPosition=bottom;verticalAlign=top;align=center;html=1;fontSize=12;fontStyle=0;aspect=fixed;shape=mxgraph.aws4.resourceIcon;resIcon=mxgraph.aws4.xray;" parent="ia9NGcA2xKYSbUIWttnW-8" vertex="1">
          <mxGeometry x="530" y="380" width="36" height="36" as="geometry" />
        </mxCell>
        <mxCell id="tvwEkDlQlnjuOqG-tz1r-5" value="&lt;i&gt;invoke&lt;br&gt;&lt;/i&gt;" style="html=1;endArrow=open;elbow=vertical;startArrow=none;endFill=0;strokeColor=#545B64;rounded=0;" parent="owXtbQJdnDH2mklxPMKy-1" target="tvwEkDlQlnjuOqG-tz1r-4" edge="1">
          <mxGeometry x="-0.0323" y="-18" width="100" relative="1" as="geometry">
            <mxPoint x="374" y="70" as="sourcePoint" />
            <mxPoint x="416" y="472.358208955224" as="targetPoint" />
            <mxPoint as="offset" />
          </mxGeometry>
        </mxCell>
        <mxCell id="tvwEkDlQlnjuOqG-tz1r-6" value="&lt;i&gt;invoke&lt;br&gt;&lt;/i&gt;" style="html=1;endArrow=open;elbow=vertical;startArrow=none;endFill=0;strokeColor=#545B64;rounded=0;" parent="owXtbQJdnDH2mklxPMKy-1" target="ia9NGcA2xKYSbUIWttnW-5" edge="1">
          <mxGeometry x="-0.0323" y="-18" width="100" relative="1" as="geometry">
            <mxPoint x="374" y="190" as="sourcePoint" />
            <mxPoint x="384" y="170" as="targetPoint" />
            <mxPoint as="offset" />
          </mxGeometry>
        </mxCell>
        <mxCell id="eRDRd6lrIG0_TiKmipwT-0" value="Lambda&lt;br&gt;Customer" style="outlineConnect=0;fontColor=#232F3E;gradientColor=none;fillColor=#232F3E;strokeColor=none;dashed=0;verticalLabelPosition=bottom;verticalAlign=top;align=center;html=1;fontSize=12;fontStyle=0;aspect=fixed;pointerEvents=1;shape=mxgraph.aws4.users;" parent="owXtbQJdnDH2mklxPMKy-1" vertex="1">
          <mxGeometry x="356" y="30" width="36" height="36" as="geometry" />
        </mxCell>
      </root>
    </mxGraphModel>
  </diagram>
  <diagram name="AWS Lambda" id="9vy5k6MEyzp0f1jZxB0z">
    <mxGraphModel dx="1793" dy="710" grid="1" gridSize="10" guides="1" tooltips="1" connect="1" arrows="1" fold="1" page="1" pageScale="1" pageWidth="827" pageHeight="1169" math="0" shadow="0">
      <root>
        <mxCell id="8ueL_ygRVz36-mgCcwMo-0" />
        <mxCell id="8ueL_ygRVz36-mgCcwMo-1" parent="8ueL_ygRVz36-mgCcwMo-0" />
        <mxCell id="8ueL_ygRVz36-mgCcwMo-2" value="Region" style="points=[[0,0],[0.25,0],[0.5,0],[0.75,0],[1,0],[1,0.25],[1,0.5],[1,0.75],[1,1],[0.75,1],[0.5,1],[0.25,1],[0,1],[0,0.75],[0,0.5],[0,0.25]];outlineConnect=0;gradientColor=none;html=1;whiteSpace=wrap;fontSize=12;fontStyle=0;shape=mxgraph.aws4.group;grIcon=mxgraph.aws4.group_region;strokeColor=#147EBA;fillColor=none;verticalAlign=top;align=left;spacingLeft=30;fontColor=#147EBA;dashed=0;" parent="8ueL_ygRVz36-mgCcwMo-1" vertex="1">
          <mxGeometry x="170" y="130" width="570" height="410" as="geometry" />
        </mxCell>
        <mxCell id="8ueL_ygRVz36-mgCcwMo-3" value="AWS Cloud" style="points=[[0,0],[0.25,0],[0.5,0],[0.75,0],[1,0],[1,0.25],[1,0.5],[1,0.75],[1,1],[0.75,1],[0.5,1],[0.25,1],[0,1],[0,0.75],[0,0.5],[0,0.25]];outlineConnect=0;gradientColor=none;html=1;whiteSpace=wrap;fontSize=12;fontStyle=0;container=1;pointerEvents=0;collapsible=0;recursiveResize=0;shape=mxgraph.aws4.group;grIcon=mxgraph.aws4.group_aws_cloud;strokeColor=#232F3E;fillColor=none;verticalAlign=top;align=left;spacingLeft=30;fontColor=#232F3E;dashed=0;" parent="8ueL_ygRVz36-mgCcwMo-1" vertex="1">
          <mxGeometry x="140" y="100" width="630" height="460" as="geometry" />
        </mxCell>
        <mxCell id="8ueL_ygRVz36-mgCcwMo-4" value="AWS managed VPC" style="points=[[0,0],[0.25,0],[0.5,0],[0.75,0],[1,0],[1,0.25],[1,0.5],[1,0.75],[1,1],[0.75,1],[0.5,1],[0.25,1],[0,1],[0,0.75],[0,0.5],[0,0.25]];outlineConnect=0;gradientColor=none;html=1;whiteSpace=wrap;fontSize=12;fontStyle=0;shape=mxgraph.aws4.group;grIcon=mxgraph.aws4.group_vpc;strokeColor=#248814;fillColor=none;verticalAlign=top;align=left;spacingLeft=30;fontColor=#AAB7B8;dashed=0;" parent="8ueL_ygRVz36-mgCcwMo-3" vertex="1">
          <mxGeometry x="60.5" y="130" width="375" height="280" as="geometry" />
        </mxCell>
        <mxCell id="8ueL_ygRVz36-mgCcwMo-10" value="Lambda" style="sketch=0;points=[[0,0,0],[0.25,0,0],[0.5,0,0],[0.75,0,0],[1,0,0],[0,1,0],[0.25,1,0],[0.5,1,0],[0.75,1,0],[1,1,0],[0,0.25,0],[0,0.5,0],[0,0.75,0],[1,0.25,0],[1,0.5,0],[1,0.75,0]];outlineConnect=0;fontColor=#232F3E;gradientColor=#F78E04;gradientDirection=north;fillColor=#D05C17;strokeColor=#ffffff;dashed=0;verticalLabelPosition=bottom;verticalAlign=top;align=center;html=1;fontSize=12;fontStyle=0;aspect=fixed;shape=mxgraph.aws4.resourceIcon;resIcon=mxgraph.aws4.lambda;" parent="8ueL_ygRVz36-mgCcwMo-3" vertex="1">
          <mxGeometry x="202" y="250" width="64" height="64" as="geometry" />
        </mxCell>
        <mxCell id="8ueL_ygRVz36-mgCcwMo-15" value="S3" style="sketch=0;points=[[0,0,0],[0.25,0,0],[0.5,0,0],[0.75,0,0],[1,0,0],[0,1,0],[0.25,1,0],[0.5,1,0],[0.75,1,0],[1,1,0],[0,0.25,0],[0,0.5,0],[0,0.75,0],[1,0.25,0],[1,0.5,0],[1,0.75,0]];outlineConnect=0;fontColor=#232F3E;gradientColor=#60A337;gradientDirection=north;fillColor=#277116;strokeColor=#ffffff;dashed=0;verticalLabelPosition=bottom;verticalAlign=top;align=center;html=1;fontSize=12;fontStyle=0;aspect=fixed;shape=mxgraph.aws4.resourceIcon;resIcon=mxgraph.aws4.s3;" parent="8ueL_ygRVz36-mgCcwMo-3" vertex="1">
          <mxGeometry x="530" y="120" width="36" height="36" as="geometry" />
        </mxCell>
        <mxCell id="8ueL_ygRVz36-mgCcwMo-16" value="ECR" style="sketch=0;points=[[0,0,0],[0.25,0,0],[0.5,0,0],[0.75,0,0],[1,0,0],[0,1,0],[0.25,1,0],[0.5,1,0],[0.75,1,0],[1,1,0],[0,0.25,0],[0,0.5,0],[0,0.75,0],[1,0.25,0],[1,0.5,0],[1,0.75,0]];outlineConnect=0;fontColor=#232F3E;gradientColor=#F78E04;gradientDirection=north;fillColor=#D05C17;strokeColor=#ffffff;dashed=0;verticalLabelPosition=bottom;verticalAlign=top;align=center;html=1;fontSize=12;fontStyle=0;aspect=fixed;shape=mxgraph.aws4.resourceIcon;resIcon=mxgraph.aws4.ecr;" parent="8ueL_ygRVz36-mgCcwMo-3" vertex="1">
          <mxGeometry x="530" y="199" width="36" height="36" as="geometry" />
        </mxCell>
        <mxCell id="8ueL_ygRVz36-mgCcwMo-17" value="CloudWatch" style="sketch=0;points=[[0,0,0],[0.25,0,0],[0.5,0,0],[0.75,0,0],[1,0,0],[0,1,0],[0.25,1,0],[0.5,1,0],[0.75,1,0],[1,1,0],[0,0.25,0],[0,0.5,0],[0,0.75,0],[1,0.25,0],[1,0.5,0],[1,0.75,0]];points=[[0,0,0],[0.25,0,0],[0.5,0,0],[0.75,0,0],[1,0,0],[0,1,0],[0.25,1,0],[0.5,1,0],[0.75,1,0],[1,1,0],[0,0.25,0],[0,0.5,0],[0,0.75,0],[1,0.25,0],[1,0.5,0],[1,0.75,0]];outlineConnect=0;fontColor=#232F3E;gradientColor=#F34482;gradientDirection=north;fillColor=#BC1356;strokeColor=#ffffff;dashed=0;verticalLabelPosition=bottom;verticalAlign=top;align=center;html=1;fontSize=12;fontStyle=0;aspect=fixed;shape=mxgraph.aws4.resourceIcon;resIcon=mxgraph.aws4.cloudwatch_2;" parent="8ueL_ygRVz36-mgCcwMo-3" vertex="1">
          <mxGeometry x="530" y="280" width="36" height="36" as="geometry" />
        </mxCell>
        <mxCell id="8ueL_ygRVz36-mgCcwMo-18" value="API Gateway" style="sketch=0;points=[[0,0,0],[0.25,0,0],[0.5,0,0],[0.75,0,0],[1,0,0],[0,1,0],[0.25,1,0],[0.5,1,0],[0.75,1,0],[1,1,0],[0,0.25,0],[0,0.5,0],[0,0.75,0],[1,0.25,0],[1,0.5,0],[1,0.75,0]];outlineConnect=0;fontColor=#232F3E;gradientColor=#945DF2;gradientDirection=north;fillColor=#5A30B5;strokeColor=#ffffff;dashed=0;verticalLabelPosition=bottom;verticalAlign=top;align=center;html=1;fontSize=12;fontStyle=0;aspect=fixed;shape=mxgraph.aws4.resourceIcon;resIcon=mxgraph.aws4.api_gateway;" parent="8ueL_ygRVz36-mgCcwMo-3" vertex="1">
          <mxGeometry x="216" y="60" width="36" height="36" as="geometry" />
        </mxCell>
        <mxCell id="8ueL_ygRVz36-mgCcwMo-21" value="&lt;i&gt;pulls Zipfiles&lt;br&gt;&lt;/i&gt;" style="html=1;endArrow=open;elbow=vertical;startArrow=none;endFill=0;strokeColor=#545B64;rounded=0;dashed=1;exitX=1;exitY=0.5;exitDx=0;exitDy=0;exitPerimeter=0;" parent="8ueL_ygRVz36-mgCcwMo-3" source="8ueL_ygRVz36-mgCcwMo-10" target="8ueL_ygRVz36-mgCcwMo-15" edge="1">
          <mxGeometry x="0.2982" y="15" width="100" relative="1" as="geometry">
            <mxPoint x="226" y="202.58620689655163" as="sourcePoint" />
            <mxPoint x="157" y="270" as="targetPoint" />
            <mxPoint as="offset" />
          </mxGeometry>
        </mxCell>
        <mxCell id="8ueL_ygRVz36-mgCcwMo-22" value="&lt;i&gt;pulls images&lt;br&gt;&lt;/i&gt;" style="html=1;endArrow=open;elbow=vertical;startArrow=none;endFill=0;strokeColor=#545B64;rounded=0;dashed=1;exitX=1;exitY=0.5;exitDx=0;exitDy=0;exitPerimeter=0;entryX=0;entryY=0.5;entryDx=0;entryDy=0;entryPerimeter=0;" parent="8ueL_ygRVz36-mgCcwMo-3" source="8ueL_ygRVz36-mgCcwMo-10" target="8ueL_ygRVz36-mgCcwMo-16" edge="1">
          <mxGeometry x="0.5681" y="25" width="100" relative="1" as="geometry">
            <mxPoint x="426" y="185" as="sourcePoint" />
            <mxPoint x="540" y="185" as="targetPoint" />
            <mxPoint as="offset" />
          </mxGeometry>
        </mxCell>
        <mxCell id="8ueL_ygRVz36-mgCcwMo-23" value="&lt;i&gt;streams logs&lt;br&gt;&lt;/i&gt;" style="html=1;endArrow=open;elbow=vertical;startArrow=none;endFill=0;strokeColor=#545B64;rounded=0;dashed=1;exitX=1;exitY=0.5;exitDx=0;exitDy=0;exitPerimeter=0;entryX=0;entryY=0.5;entryDx=0;entryDy=0;entryPerimeter=0;" parent="8ueL_ygRVz36-mgCcwMo-3" source="8ueL_ygRVz36-mgCcwMo-10" target="8ueL_ygRVz36-mgCcwMo-17" edge="1">
          <mxGeometry x="0.3048" y="-25" width="100" relative="1" as="geometry">
            <mxPoint x="426" y="185" as="sourcePoint" />
            <mxPoint x="540" y="268" as="targetPoint" />
            <mxPoint y="1" as="offset" />
          </mxGeometry>
        </mxCell>
        <mxCell id="8ueL_ygRVz36-mgCcwMo-24" value="CloudFormation" style="sketch=0;points=[[0,0,0],[0.25,0,0],[0.5,0,0],[0.75,0,0],[1,0,0],[0,1,0],[0.25,1,0],[0.5,1,0],[0.75,1,0],[1,1,0],[0,0.25,0],[0,0.5,0],[0,0.75,0],[1,0.25,0],[1,0.5,0],[1,0.75,0]];points=[[0,0,0],[0.25,0,0],[0.5,0,0],[0.75,0,0],[1,0,0],[0,1,0],[0.25,1,0],[0.5,1,0],[0.75,1,0],[1,1,0],[0,0.25,0],[0,0.5,0],[0,0.75,0],[1,0.25,0],[1,0.5,0],[1,0.75,0]];outlineConnect=0;fontColor=#232F3E;gradientColor=#F34482;gradientDirection=north;fillColor=#BC1356;strokeColor=#ffffff;dashed=0;verticalLabelPosition=bottom;verticalAlign=top;align=center;html=1;fontSize=12;fontStyle=0;aspect=fixed;shape=mxgraph.aws4.resourceIcon;resIcon=mxgraph.aws4.cloudformation;" parent="8ueL_ygRVz36-mgCcwMo-3" vertex="1">
          <mxGeometry x="530" y="50" width="36" height="36" as="geometry" />
        </mxCell>
        <mxCell id="8ueL_ygRVz36-mgCcwMo-25" value="&lt;i&gt;deploys functions&lt;br&gt;&lt;/i&gt;" style="html=1;endArrow=open;elbow=vertical;startArrow=none;endFill=0;strokeColor=#545B64;rounded=0;dashed=1;exitX=0;exitY=0.5;exitDx=0;exitDy=0;exitPerimeter=0;entryX=1;entryY=0;entryDx=0;entryDy=0;entryPerimeter=0;" parent="8ueL_ygRVz36-mgCcwMo-3" source="8ueL_ygRVz36-mgCcwMo-24" target="8ueL_ygRVz36-mgCcwMo-10" edge="1">
          <mxGeometry x="0.157" y="-29" width="100" relative="1" as="geometry">
            <mxPoint x="436" y="195" as="sourcePoint" />
            <mxPoint x="550" y="278" as="targetPoint" />
            <mxPoint as="offset" />
          </mxGeometry>
        </mxCell>
        <mxCell id="8ueL_ygRVz36-mgCcwMo-26" value="&lt;i&gt;manages APIs&lt;br&gt;&lt;/i&gt;" style="html=1;endArrow=open;elbow=vertical;startArrow=none;endFill=0;strokeColor=#545B64;rounded=0;dashed=1;exitX=0;exitY=0.5;exitDx=0;exitDy=0;exitPerimeter=0;entryX=1;entryY=0.5;entryDx=0;entryDy=0;entryPerimeter=0;" parent="8ueL_ygRVz36-mgCcwMo-3" source="8ueL_ygRVz36-mgCcwMo-24" target="8ueL_ygRVz36-mgCcwMo-18" edge="1">
          <mxGeometry x="0.0105" y="-13" width="100" relative="1" as="geometry">
            <mxPoint x="540" y="98" as="sourcePoint" />
            <mxPoint x="426" y="162" as="targetPoint" />
            <mxPoint as="offset" />
          </mxGeometry>
        </mxCell>
        <mxCell id="8ueL_ygRVz36-mgCcwMo-27" value="X-Ray" style="sketch=0;points=[[0,0,0],[0.25,0,0],[0.5,0,0],[0.75,0,0],[1,0,0],[0,1,0],[0.25,1,0],[0.5,1,0],[0.75,1,0],[1,1,0],[0,0.25,0],[0,0.5,0],[0,0.75,0],[1,0.25,0],[1,0.5,0],[1,0.75,0]];outlineConnect=0;fontColor=#232F3E;gradientColor=#4D72F3;gradientDirection=north;fillColor=#3334B9;strokeColor=#ffffff;dashed=0;verticalLabelPosition=bottom;verticalAlign=top;align=center;html=1;fontSize=12;fontStyle=0;aspect=fixed;shape=mxgraph.aws4.resourceIcon;resIcon=mxgraph.aws4.xray;" parent="8ueL_ygRVz36-mgCcwMo-3" vertex="1">
          <mxGeometry x="530" y="360" width="36" height="36" as="geometry" />
        </mxCell>
        <mxCell id="8ueL_ygRVz36-mgCcwMo-28" value="&lt;i&gt;invoke&lt;br&gt;&lt;/i&gt;" style="html=1;endArrow=open;elbow=vertical;startArrow=none;endFill=0;strokeColor=#545B64;rounded=0;" parent="8ueL_ygRVz36-mgCcwMo-1" target="8ueL_ygRVz36-mgCcwMo-18" edge="1">
          <mxGeometry x="-0.0323" y="-18" width="100" relative="1" as="geometry">
            <mxPoint x="374" y="70" as="sourcePoint" />
            <mxPoint x="416" y="472.358208955224" as="targetPoint" />
            <mxPoint as="offset" />
          </mxGeometry>
        </mxCell>
        <mxCell id="8ueL_ygRVz36-mgCcwMo-29" value="&lt;i&gt;invoke&lt;br&gt;&lt;/i&gt;" style="html=1;endArrow=open;elbow=vertical;startArrow=none;endFill=0;strokeColor=#545B64;rounded=0;entryX=0.5;entryY=0;entryDx=0;entryDy=0;entryPerimeter=0;" parent="8ueL_ygRVz36-mgCcwMo-1" target="8ueL_ygRVz36-mgCcwMo-10" edge="1">
          <mxGeometry x="-0.0323" y="-18" width="100" relative="1" as="geometry">
            <mxPoint x="374" y="190" as="sourcePoint" />
            <mxPoint x="374" y="257.0004090816118" as="targetPoint" />
            <mxPoint as="offset" />
          </mxGeometry>
        </mxCell>
        <mxCell id="8ueL_ygRVz36-mgCcwMo-30" value="Lambda&lt;br&gt;Customer" style="outlineConnect=0;fontColor=#232F3E;gradientColor=none;fillColor=#232F3E;strokeColor=none;dashed=0;verticalLabelPosition=bottom;verticalAlign=top;align=center;html=1;fontSize=12;fontStyle=0;aspect=fixed;pointerEvents=1;shape=mxgraph.aws4.users;" parent="8ueL_ygRVz36-mgCcwMo-1" vertex="1">
          <mxGeometry x="356" y="30" width="36" height="36" as="geometry" />
        </mxCell>
        <mxCell id="0Je5Kh1RWQ34fLBoWvzC-0" value="Lambda Developer" style="sketch=0;outlineConnect=0;fontColor=#232F3E;gradientColor=none;fillColor=#232F3D;strokeColor=none;dashed=0;verticalLabelPosition=bottom;verticalAlign=top;align=center;html=1;fontSize=12;fontStyle=0;aspect=fixed;pointerEvents=1;shape=mxgraph.aws4.user;labelBackgroundColor=none;" parent="8ueL_ygRVz36-mgCcwMo-1" vertex="1">
          <mxGeometry x="580" y="30" width="36" height="36" as="geometry" />
        </mxCell>
        <mxCell id="0Je5Kh1RWQ34fLBoWvzC-1" value="&lt;i&gt;build &amp;amp; run stacks&lt;br&gt;&lt;/i&gt;" style="html=1;endArrow=open;elbow=vertical;startArrow=none;endFill=0;strokeColor=#545B64;rounded=0;entryX=0.5;entryY=0;entryDx=0;entryDy=0;entryPerimeter=0;edgeStyle=orthogonalEdgeStyle;" parent="8ueL_ygRVz36-mgCcwMo-1" source="0Je5Kh1RWQ34fLBoWvzC-0" target="8ueL_ygRVz36-mgCcwMo-24" edge="1">
          <mxGeometry x="-0.4803" y="-12" width="100" relative="1" as="geometry">
            <mxPoint x="384" y="80" as="sourcePoint" />
            <mxPoint x="384" y="170" as="targetPoint" />
            <mxPoint as="offset" />
            <Array as="points">
              <mxPoint x="598" y="110" />
              <mxPoint x="688" y="110" />
            </Array>
          </mxGeometry>
        </mxCell>
        <mxCell id="0Je5Kh1RWQ34fLBoWvzC-2" value="&lt;i&gt;push ZIP file&lt;br&gt;&lt;/i&gt;" style="html=1;endArrow=open;elbow=vertical;startArrow=none;endFill=0;strokeColor=#545B64;rounded=0;edgeStyle=orthogonalEdgeStyle;" parent="8ueL_ygRVz36-mgCcwMo-1" edge="1">
          <mxGeometry x="-0.4803" y="-12" width="100" relative="1" as="geometry">
            <mxPoint x="620" y="60" as="sourcePoint" />
            <mxPoint x="710" y="240" as="targetPoint" />
            <mxPoint as="offset" />
            <Array as="points">
              <mxPoint x="790" y="58" />
              <mxPoint x="790" y="240" />
            </Array>
          </mxGeometry>
        </mxCell>
        <mxCell id="0Je5Kh1RWQ34fLBoWvzC-3" value="&lt;i&gt;push image&lt;br&gt;&lt;/i&gt;" style="html=1;endArrow=open;elbow=vertical;startArrow=none;endFill=0;strokeColor=#545B64;rounded=0;edgeStyle=orthogonalEdgeStyle;" parent="8ueL_ygRVz36-mgCcwMo-1" source="0Je5Kh1RWQ34fLBoWvzC-0" edge="1">
          <mxGeometry x="-0.4803" y="-12" width="100" relative="1" as="geometry">
            <mxPoint x="624.363636363636" y="68" as="sourcePoint" />
            <mxPoint x="710" y="320" as="targetPoint" />
            <mxPoint as="offset" />
            <Array as="points">
              <mxPoint x="800" y="30" />
              <mxPoint x="800" y="320" />
              <mxPoint x="720" y="320" />
            </Array>
          </mxGeometry>
        </mxCell>
      </root>
    </mxGraphModel>
  </diagram>
  <diagram id="wPIr4jr7duiepcW-DRYb" name="Orchestration">
    <mxGraphModel dx="1793" dy="710" grid="1" gridSize="10" guides="1" tooltips="1" connect="1" arrows="1" fold="1" page="1" pageScale="1" pageWidth="827" pageHeight="1169" math="0" shadow="0">
      <root>
        <mxCell id="0" />
        <mxCell id="1" parent="0" />
        <mxCell id="XgJBcZk8pyCa1rKY9gRd-4" value="AWS Step Functions" style="sketch=0;points=[[0,0,0],[0.25,0,0],[0.5,0,0],[0.75,0,0],[1,0,0],[0,1,0],[0.25,1,0],[0.5,1,0],[0.75,1,0],[1,1,0],[0,0.25,0],[0,0.5,0],[0,0.75,0],[1,0.25,0],[1,0.5,0],[1,0.75,0]];outlineConnect=0;fontColor=#232F3E;gradientColor=#FF4F8B;gradientDirection=north;fillColor=#BC1356;strokeColor=#ffffff;dashed=0;verticalLabelPosition=bottom;verticalAlign=top;align=center;html=1;fontSize=12;fontStyle=0;aspect=fixed;shape=mxgraph.aws4.resourceIcon;resIcon=mxgraph.aws4.step_functions;" vertex="1" parent="1">
          <mxGeometry x="80" y="100" width="78" height="78" as="geometry" />
        </mxCell>
        <mxCell id="XgJBcZk8pyCa1rKY9gRd-5" value="AWS Step Functions workflow" style="points=[[0,0],[0.25,0],[0.5,0],[0.75,0],[1,0],[1,0.25],[1,0.5],[1,0.75],[1,1],[0.75,1],[0.5,1],[0.25,1],[0,1],[0,0.75],[0,0.5],[0,0.25]];outlineConnect=0;gradientColor=none;html=1;whiteSpace=wrap;fontSize=12;fontStyle=0;container=1;pointerEvents=0;collapsible=0;recursiveResize=0;shape=mxgraph.aws4.group;grIcon=mxgraph.aws4.group_aws_step_functions_workflow;strokeColor=#CD2264;fillColor=none;verticalAlign=top;align=left;spacingLeft=30;fontColor=#CD2264;dashed=0;" vertex="1" parent="1">
          <mxGeometry x="270" y="50" width="342" height="190" as="geometry" />
        </mxCell>
        <mxCell id="XgJBcZk8pyCa1rKY9gRd-2" value="Check Inventory&lt;br&gt;and hold product" style="sketch=0;outlineConnect=0;fontColor=#232F3E;gradientColor=none;fillColor=#D45B07;strokeColor=none;dashed=0;verticalLabelPosition=bottom;verticalAlign=top;align=center;html=1;fontSize=12;fontStyle=0;aspect=fixed;pointerEvents=1;shape=mxgraph.aws4.lambda_function;" vertex="1" parent="XgJBcZk8pyCa1rKY9gRd-5">
          <mxGeometry x="40" y="50.5" width="29" height="29" as="geometry" />
        </mxCell>
        <mxCell id="XgJBcZk8pyCa1rKY9gRd-16" value="" style="edgeStyle=orthogonalEdgeStyle;rounded=0;orthogonalLoop=1;jettySize=auto;html=1;" edge="1" parent="XgJBcZk8pyCa1rKY9gRd-5" source="XgJBcZk8pyCa1rKY9gRd-10" target="XgJBcZk8pyCa1rKY9gRd-13">
          <mxGeometry relative="1" as="geometry" />
        </mxCell>
        <mxCell id="XgJBcZk8pyCa1rKY9gRd-18" value="" style="edgeStyle=orthogonalEdgeStyle;rounded=0;orthogonalLoop=1;jettySize=auto;html=1;" edge="1" parent="XgJBcZk8pyCa1rKY9gRd-5" source="XgJBcZk8pyCa1rKY9gRd-10" target="XgJBcZk8pyCa1rKY9gRd-12">
          <mxGeometry relative="1" as="geometry" />
        </mxCell>
        <mxCell id="XgJBcZk8pyCa1rKY9gRd-10" value="Bill Customer" style="sketch=0;outlineConnect=0;fontColor=#232F3E;gradientColor=none;fillColor=#D45B07;strokeColor=none;dashed=0;verticalLabelPosition=bottom;verticalAlign=top;align=center;html=1;fontSize=12;fontStyle=0;aspect=fixed;pointerEvents=1;shape=mxgraph.aws4.lambda_function;" vertex="1" parent="XgJBcZk8pyCa1rKY9gRd-5">
          <mxGeometry x="144" y="50.5" width="29" height="29" as="geometry" />
        </mxCell>
        <mxCell id="XgJBcZk8pyCa1rKY9gRd-12" value="Remove hold" style="sketch=0;outlineConnect=0;fontColor=#232F3E;gradientColor=none;fillColor=#D45B07;strokeColor=none;dashed=0;verticalLabelPosition=bottom;verticalAlign=top;align=center;html=1;fontSize=12;fontStyle=0;aspect=fixed;pointerEvents=1;shape=mxgraph.aws4.lambda_function;" vertex="1" parent="XgJBcZk8pyCa1rKY9gRd-5">
          <mxGeometry x="144" y="130" width="29" height="29" as="geometry" />
        </mxCell>
        <mxCell id="XgJBcZk8pyCa1rKY9gRd-13" value="Ship Product" style="sketch=0;outlineConnect=0;fontColor=#232F3E;gradientColor=none;fillColor=#D45B07;strokeColor=none;dashed=0;verticalLabelPosition=bottom;verticalAlign=top;align=center;html=1;fontSize=12;fontStyle=0;aspect=fixed;pointerEvents=1;shape=mxgraph.aws4.lambda_function;" vertex="1" parent="XgJBcZk8pyCa1rKY9gRd-5">
          <mxGeometry x="260" y="50.5" width="29" height="29" as="geometry" />
        </mxCell>
        <mxCell id="XgJBcZk8pyCa1rKY9gRd-15" value="" style="edgeStyle=orthogonalEdgeStyle;html=1;endArrow=block;elbow=vertical;startArrow=none;endFill=1;strokeColor=#545B64;rounded=0;" edge="1" parent="XgJBcZk8pyCa1rKY9gRd-5" source="XgJBcZk8pyCa1rKY9gRd-2" target="XgJBcZk8pyCa1rKY9gRd-10">
          <mxGeometry width="100" relative="1" as="geometry">
            <mxPoint x="70" y="65" as="sourcePoint" />
            <mxPoint x="50" y="75" as="targetPoint" />
          </mxGeometry>
        </mxCell>
        <mxCell id="XgJBcZk8pyCa1rKY9gRd-8" value="End" style="ellipse;html=1;shape=endState;fillColor=strokeColor;" vertex="1" parent="1">
          <mxGeometry x="640" y="100" width="30" height="30" as="geometry" />
        </mxCell>
        <mxCell id="XgJBcZk8pyCa1rKY9gRd-9" value="Start" style="ellipse;" vertex="1" parent="1">
          <mxGeometry x="200" y="100" width="30" height="30" as="geometry" />
        </mxCell>
        <mxCell id="XgJBcZk8pyCa1rKY9gRd-14" value="" style="edgeStyle=orthogonalEdgeStyle;html=1;endArrow=block;elbow=vertical;startArrow=none;endFill=1;strokeColor=#545B64;rounded=0;exitX=1;exitY=0.5;exitDx=0;exitDy=0;" edge="1" parent="1" source="XgJBcZk8pyCa1rKY9gRd-9" target="XgJBcZk8pyCa1rKY9gRd-2">
          <mxGeometry width="100" relative="1" as="geometry">
            <mxPoint x="220" y="114.5" as="sourcePoint" />
            <mxPoint x="320" y="114.5" as="targetPoint" />
          </mxGeometry>
        </mxCell>
        <mxCell id="XgJBcZk8pyCa1rKY9gRd-17" value="" style="edgeStyle=orthogonalEdgeStyle;rounded=0;orthogonalLoop=1;jettySize=auto;html=1;" edge="1" parent="1" source="XgJBcZk8pyCa1rKY9gRd-13" target="XgJBcZk8pyCa1rKY9gRd-8">
          <mxGeometry relative="1" as="geometry" />
        </mxCell>
        <mxCell id="XgJBcZk8pyCa1rKY9gRd-19" style="edgeStyle=orthogonalEdgeStyle;rounded=0;orthogonalLoop=1;jettySize=auto;html=1;entryX=0.5;entryY=1;entryDx=0;entryDy=0;" edge="1" parent="1" source="XgJBcZk8pyCa1rKY9gRd-12" target="XgJBcZk8pyCa1rKY9gRd-8">
          <mxGeometry relative="1" as="geometry" />
        </mxCell>
      </root>
    </mxGraphModel>
  </diagram>
  <diagram name="Choreography" id="EJNIVLwyThgvGK9zjRLY">
    <mxGraphModel dx="1808" dy="725" grid="1" gridSize="10" guides="1" tooltips="1" connect="1" arrows="1" fold="1" page="1" pageScale="1" pageWidth="827" pageHeight="1169" math="0" shadow="0">
      <root>
        <mxCell id="EsaOmkONob0b9MrUPxpv-0" />
        <mxCell id="EsaOmkONob0b9MrUPxpv-1" parent="EsaOmkONob0b9MrUPxpv-0" />
        <mxCell id="EsaOmkONob0b9MrUPxpv-3" value="AWS EventBridge" style="sketch=0;points=[[0,0,0],[0.25,0,0],[0.5,0,0],[0.75,0,0],[1,0,0],[0,1,0],[0.25,1,0],[0.5,1,0],[0.75,1,0],[1,1,0],[0,0.25,0],[0,0.5,0],[0,0.75,0],[1,0.25,0],[1,0.5,0],[1,0.75,0]];outlineConnect=0;fontColor=#232F3E;gradientColor=#FF4F8B;gradientDirection=north;fillColor=#BC1356;strokeColor=#ffffff;dashed=0;verticalLabelPosition=bottom;verticalAlign=top;align=center;html=1;fontSize=12;fontStyle=0;aspect=fixed;shape=mxgraph.aws4.resourceIcon;resIcon=mxgraph.aws4.eventbridge;" vertex="1" parent="EsaOmkONob0b9MrUPxpv-1">
          <mxGeometry x="60" y="540" width="78" height="78" as="geometry" />
        </mxCell>
        <mxCell id="lktpOkwugc1-9y8GPiu1-0" value="Check Inventory&lt;br&gt;and hold product" style="sketch=0;outlineConnect=0;fontColor=#232F3E;gradientColor=none;fillColor=#D45B07;strokeColor=none;dashed=0;verticalLabelPosition=bottom;verticalAlign=top;align=center;html=1;fontSize=12;fontStyle=0;aspect=fixed;pointerEvents=1;shape=mxgraph.aws4.lambda_function;" vertex="1" parent="EsaOmkONob0b9MrUPxpv-1">
          <mxGeometry x="301" y="448.5" width="29" height="29" as="geometry" />
        </mxCell>
        <mxCell id="lktpOkwugc1-9y8GPiu1-13" value="" style="edgeStyle=orthogonalEdgeStyle;rounded=0;orthogonalLoop=1;jettySize=auto;html=1;entryX=0.469;entryY=0.013;entryDx=0;entryDy=0;entryPerimeter=0;" edge="1" parent="EsaOmkONob0b9MrUPxpv-1" source="lktpOkwugc1-9y8GPiu1-3" target="lktpOkwugc1-9y8GPiu1-7">
          <mxGeometry relative="1" as="geometry" />
        </mxCell>
        <mxCell id="lktpOkwugc1-9y8GPiu1-3" value="Bill Customer" style="sketch=0;outlineConnect=0;fontColor=#232F3E;gradientColor=none;fillColor=#D45B07;strokeColor=none;dashed=0;verticalLabelPosition=bottom;verticalAlign=top;align=center;html=1;fontSize=12;fontStyle=0;aspect=fixed;pointerEvents=1;shape=mxgraph.aws4.lambda_function;" vertex="1" parent="EsaOmkONob0b9MrUPxpv-1">
          <mxGeometry x="420" y="448.5" width="29" height="29" as="geometry" />
        </mxCell>
        <mxCell id="lktpOkwugc1-9y8GPiu1-14" value="" style="edgeStyle=orthogonalEdgeStyle;rounded=0;orthogonalLoop=1;jettySize=auto;html=1;entryX=0.336;entryY=1.029;entryDx=0;entryDy=0;entryPerimeter=0;" edge="1" parent="EsaOmkONob0b9MrUPxpv-1" source="lktpOkwugc1-9y8GPiu1-4" target="lktpOkwugc1-9y8GPiu1-7">
          <mxGeometry relative="1" as="geometry" />
        </mxCell>
        <mxCell id="lktpOkwugc1-9y8GPiu1-4" value="Remove hold" style="sketch=0;outlineConnect=0;fontColor=#232F3E;gradientColor=none;fillColor=#D45B07;strokeColor=none;dashed=0;verticalLabelPosition=bottom;verticalAlign=top;align=center;html=1;fontSize=12;fontStyle=0;aspect=fixed;pointerEvents=1;shape=mxgraph.aws4.lambda_function;" vertex="1" parent="EsaOmkONob0b9MrUPxpv-1">
          <mxGeometry x="347.5" y="660" width="29" height="29" as="geometry" />
        </mxCell>
        <mxCell id="lktpOkwugc1-9y8GPiu1-15" value="" style="edgeStyle=orthogonalEdgeStyle;rounded=0;orthogonalLoop=1;jettySize=auto;html=1;" edge="1" parent="EsaOmkONob0b9MrUPxpv-1" source="lktpOkwugc1-9y8GPiu1-5">
          <mxGeometry relative="1" as="geometry">
            <mxPoint x="564" y="540" as="targetPoint" />
          </mxGeometry>
        </mxCell>
        <mxCell id="lktpOkwugc1-9y8GPiu1-5" value="Ship Product" style="sketch=0;outlineConnect=0;fontColor=#232F3E;gradientColor=none;fillColor=#D45B07;strokeColor=none;dashed=0;verticalLabelPosition=bottom;verticalAlign=top;align=center;html=1;fontSize=12;fontStyle=0;aspect=fixed;pointerEvents=1;shape=mxgraph.aws4.lambda_function;" vertex="1" parent="EsaOmkONob0b9MrUPxpv-1">
          <mxGeometry x="549.5" y="448.5" width="29" height="29" as="geometry" />
        </mxCell>
        <mxCell id="lktpOkwugc1-9y8GPiu1-6" value="" style="edgeStyle=orthogonalEdgeStyle;html=1;endArrow=block;elbow=vertical;startArrow=none;endFill=1;strokeColor=#545B64;rounded=0;entryX=0.25;entryY=0;entryDx=0;entryDy=0;" edge="1" parent="EsaOmkONob0b9MrUPxpv-1" source="lktpOkwugc1-9y8GPiu1-0" target="lktpOkwugc1-9y8GPiu1-7">
          <mxGeometry width="100" relative="1" as="geometry">
            <mxPoint x="331" y="354.5" as="sourcePoint" />
            <mxPoint x="380" y="310" as="targetPoint" />
          </mxGeometry>
        </mxCell>
        <mxCell id="lktpOkwugc1-9y8GPiu1-7" value="" style="rounded=1;whiteSpace=wrap;html=1;fillColor=none;" vertex="1" parent="EsaOmkONob0b9MrUPxpv-1">
          <mxGeometry x="181" y="540" width="539" height="80" as="geometry" />
        </mxCell>
        <mxCell id="lktpOkwugc1-9y8GPiu1-8" value="Event Bus" style="sketch=0;outlineConnect=0;fontColor=#232F3E;gradientColor=none;fillColor=#B0084D;strokeColor=none;dashed=0;verticalLabelPosition=bottom;verticalAlign=top;align=center;html=1;fontSize=12;fontStyle=0;aspect=fixed;pointerEvents=1;shape=mxgraph.aws4.eventbridge_default_event_bus_resource;" vertex="1" parent="EsaOmkONob0b9MrUPxpv-1">
          <mxGeometry x="200" y="552" width="48.57" height="33" as="geometry" />
        </mxCell>
        <mxCell id="lktpOkwugc1-9y8GPiu1-9" value="OrderAcceptedEvent" style="sketch=0;outlineConnect=0;fontColor=#232F3E;gradientColor=none;fillColor=#B0084D;strokeColor=none;dashed=0;verticalLabelPosition=bottom;verticalAlign=top;align=center;html=1;fontSize=12;fontStyle=0;aspect=fixed;pointerEvents=1;shape=mxgraph.aws4.event;" vertex="1" parent="EsaOmkONob0b9MrUPxpv-1">
          <mxGeometry x="320" y="550" width="27.5" height="27.5" as="geometry" />
        </mxCell>
        <mxCell id="lktpOkwugc1-9y8GPiu1-10" value="PaymentSucceededEvent" style="sketch=0;outlineConnect=0;fontColor=#232F3E;gradientColor=none;fillColor=#B0084D;strokeColor=none;dashed=0;verticalLabelPosition=bottom;verticalAlign=top;align=center;html=1;fontSize=12;fontStyle=0;aspect=fixed;pointerEvents=1;shape=mxgraph.aws4.event;" vertex="1" parent="EsaOmkONob0b9MrUPxpv-1">
          <mxGeometry x="436.75" y="566.25" width="27.5" height="27.5" as="geometry" />
        </mxCell>
        <mxCell id="lktpOkwugc1-9y8GPiu1-11" value="PaymentFailedEvent" style="sketch=0;outlineConnect=0;fontColor=#232F3E;gradientColor=none;fillColor=#B0084D;strokeColor=none;dashed=0;verticalLabelPosition=bottom;verticalAlign=top;align=center;html=1;fontSize=12;fontStyle=0;aspect=fixed;pointerEvents=1;shape=mxgraph.aws4.event;" vertex="1" parent="EsaOmkONob0b9MrUPxpv-1">
          <mxGeometry x="550" y="550" width="27.5" height="27.5" as="geometry" />
        </mxCell>
      </root>
    </mxGraphModel>
  </diagram>
  <diagram name="Event-Carried State Transfer" id="i_5Rq4_i_ZKl9WVGubRS">
    <mxGraphModel dx="1808" dy="725" grid="1" gridSize="10" guides="1" tooltips="1" connect="1" arrows="1" fold="1" page="1" pageScale="1" pageWidth="827" pageHeight="1169" math="0" shadow="0">
      <root>
        <mxCell id="8_0j-dV4RuszGRuTaeJz-0" />
        <mxCell id="8_0j-dV4RuszGRuTaeJz-1" parent="8_0j-dV4RuszGRuTaeJz-0" />
        <mxCell id="8_0j-dV4RuszGRuTaeJz-2" value="AWS EventBridge" style="sketch=0;points=[[0,0,0],[0.25,0,0],[0.5,0,0],[0.75,0,0],[1,0,0],[0,1,0],[0.25,1,0],[0.5,1,0],[0.75,1,0],[1,1,0],[0,0.25,0],[0,0.5,0],[0,0.75,0],[1,0.25,0],[1,0.5,0],[1,0.75,0]];outlineConnect=0;fontColor=#232F3E;gradientColor=#FF4F8B;gradientDirection=north;fillColor=#BC1356;strokeColor=#ffffff;dashed=0;verticalLabelPosition=bottom;verticalAlign=top;align=center;html=1;fontSize=12;fontStyle=0;aspect=fixed;shape=mxgraph.aws4.resourceIcon;resIcon=mxgraph.aws4.eventbridge;" vertex="1" parent="8_0j-dV4RuszGRuTaeJz-1">
          <mxGeometry x="60" y="540" width="78" height="78" as="geometry" />
        </mxCell>
        <mxCell id="ajLnjdUu-toE6G4Jq8Yi-4" value="" style="edgeStyle=orthogonalEdgeStyle;rounded=0;orthogonalLoop=1;jettySize=auto;html=1;entryX=0.5;entryY=0;entryDx=0;entryDy=0;" edge="1" parent="8_0j-dV4RuszGRuTaeJz-1" source="8_0j-dV4RuszGRuTaeJz-3" target="8_0j-dV4RuszGRuTaeJz-11">
          <mxGeometry relative="1" as="geometry">
            <mxPoint x="380" y="743.5" as="targetPoint" />
          </mxGeometry>
        </mxCell>
        <mxCell id="8_0j-dV4RuszGRuTaeJz-3" value="Check Inventory&lt;br&gt;and hold product" style="sketch=0;outlineConnect=0;fontColor=#232F3E;gradientColor=none;fillColor=#D45B07;strokeColor=none;dashed=0;verticalLabelPosition=bottom;verticalAlign=top;align=center;html=1;fontSize=12;fontStyle=0;aspect=fixed;pointerEvents=1;shape=mxgraph.aws4.lambda_function;" vertex="1" parent="8_0j-dV4RuszGRuTaeJz-1">
          <mxGeometry x="365.5" y="650" width="29" height="29" as="geometry" />
        </mxCell>
        <mxCell id="8_0j-dV4RuszGRuTaeJz-4" value="" style="edgeStyle=orthogonalEdgeStyle;rounded=0;orthogonalLoop=1;jettySize=auto;html=1;" edge="1" parent="8_0j-dV4RuszGRuTaeJz-1" source="8_0j-dV4RuszGRuTaeJz-9">
          <mxGeometry relative="1" as="geometry">
            <mxPoint x="410" y="530" as="targetPoint" />
          </mxGeometry>
        </mxCell>
        <mxCell id="8_0j-dV4RuszGRuTaeJz-5" value="Bill Customer" style="sketch=0;outlineConnect=0;fontColor=#232F3E;gradientColor=none;fillColor=#D45B07;strokeColor=none;dashed=0;verticalLabelPosition=bottom;verticalAlign=top;align=center;html=1;fontSize=12;fontStyle=0;aspect=fixed;pointerEvents=1;shape=mxgraph.aws4.lambda_function;" vertex="1" parent="8_0j-dV4RuszGRuTaeJz-1">
          <mxGeometry x="280" y="930" width="29" height="29" as="geometry" />
        </mxCell>
        <mxCell id="8_0j-dV4RuszGRuTaeJz-6" value="" style="edgeStyle=orthogonalEdgeStyle;rounded=0;orthogonalLoop=1;jettySize=auto;html=1;" edge="1" parent="8_0j-dV4RuszGRuTaeJz-1" source="8_0j-dV4RuszGRuTaeJz-7">
          <mxGeometry relative="1" as="geometry">
            <mxPoint x="410" y="650" as="targetPoint" />
          </mxGeometry>
        </mxCell>
        <mxCell id="8_0j-dV4RuszGRuTaeJz-8" value="" style="edgeStyle=orthogonalEdgeStyle;rounded=0;orthogonalLoop=1;jettySize=auto;html=1;" edge="1" parent="8_0j-dV4RuszGRuTaeJz-1" source="8_0j-dV4RuszGRuTaeJz-7">
          <mxGeometry relative="1" as="geometry">
            <mxPoint x="540" y="520" as="targetPoint" />
          </mxGeometry>
        </mxCell>
        <mxCell id="8_0j-dV4RuszGRuTaeJz-10" value="" style="edgeStyle=orthogonalEdgeStyle;html=1;endArrow=block;elbow=vertical;startArrow=none;endFill=1;strokeColor=#545B64;rounded=0;" edge="1" parent="8_0j-dV4RuszGRuTaeJz-1">
          <mxGeometry width="100" relative="1" as="geometry">
            <mxPoint x="270" y="450" as="sourcePoint" />
            <mxPoint x="210" y="710" as="targetPoint" />
          </mxGeometry>
        </mxCell>
        <mxCell id="8_0j-dV4RuszGRuTaeJz-11" value="" style="rounded=1;whiteSpace=wrap;html=1;fillColor=none;" vertex="1" parent="8_0j-dV4RuszGRuTaeJz-1">
          <mxGeometry x="240" y="810" width="280" height="70" as="geometry" />
        </mxCell>
        <mxCell id="8_0j-dV4RuszGRuTaeJz-12" value="Event Bus" style="sketch=0;outlineConnect=0;fontColor=#232F3E;gradientColor=none;fillColor=#B0084D;strokeColor=none;dashed=0;verticalLabelPosition=bottom;verticalAlign=top;align=center;html=1;fontSize=12;fontStyle=0;aspect=fixed;pointerEvents=1;shape=mxgraph.aws4.eventbridge_default_event_bus_resource;" vertex="1" parent="8_0j-dV4RuszGRuTaeJz-1">
          <mxGeometry x="355.72" y="820" width="48.57" height="33" as="geometry" />
        </mxCell>
        <mxCell id="8_0j-dV4RuszGRuTaeJz-13" value="OrderAcceptedEvent" style="sketch=0;outlineConnect=0;fontColor=#232F3E;gradientColor=none;fillColor=#B0084D;strokeColor=none;dashed=0;verticalLabelPosition=bottom;verticalAlign=top;align=center;html=1;fontSize=12;fontStyle=0;aspect=fixed;pointerEvents=1;shape=mxgraph.aws4.event;" vertex="1" parent="8_0j-dV4RuszGRuTaeJz-1">
          <mxGeometry x="300" y="730" width="27.5" height="27.5" as="geometry" />
        </mxCell>
        <mxCell id="8_0j-dV4RuszGRuTaeJz-14" value="PaymentSucceededEvent" style="sketch=0;outlineConnect=0;fontColor=#232F3E;gradientColor=none;fillColor=#B0084D;strokeColor=none;dashed=0;verticalLabelPosition=bottom;verticalAlign=top;align=center;html=1;fontSize=12;fontStyle=0;aspect=fixed;pointerEvents=1;shape=mxgraph.aws4.event;" vertex="1" parent="8_0j-dV4RuszGRuTaeJz-1">
          <mxGeometry x="436.75" y="566.25" width="27.5" height="27.5" as="geometry" />
        </mxCell>
        <mxCell id="8_0j-dV4RuszGRuTaeJz-15" value="PaymentFailedEvent" style="sketch=0;outlineConnect=0;fontColor=#232F3E;gradientColor=none;fillColor=#B0084D;strokeColor=none;dashed=0;verticalLabelPosition=bottom;verticalAlign=top;align=center;html=1;fontSize=12;fontStyle=0;aspect=fixed;pointerEvents=1;shape=mxgraph.aws4.event;" vertex="1" parent="8_0j-dV4RuszGRuTaeJz-1">
          <mxGeometry x="550" y="550" width="27.5" height="27.5" as="geometry" />
        </mxCell>
        <mxCell id="ajLnjdUu-toE6G4Jq8Yi-0" value="" style="edgeStyle=orthogonalEdgeStyle;rounded=0;orthogonalLoop=1;jettySize=auto;html=1;" edge="1" parent="8_0j-dV4RuszGRuTaeJz-1" source="8_0j-dV4RuszGRuTaeJz-5" target="8_0j-dV4RuszGRuTaeJz-9">
          <mxGeometry relative="1" as="geometry">
            <mxPoint x="309" y="945" as="sourcePoint" />
            <mxPoint x="410" y="530" as="targetPoint" />
          </mxGeometry>
        </mxCell>
        <mxCell id="8_0j-dV4RuszGRuTaeJz-9" value="Ship Product" style="sketch=0;outlineConnect=0;fontColor=#232F3E;gradientColor=none;fillColor=#D45B07;strokeColor=none;dashed=0;verticalLabelPosition=bottom;verticalAlign=top;align=center;html=1;fontSize=12;fontStyle=0;aspect=fixed;pointerEvents=1;shape=mxgraph.aws4.lambda_function;" vertex="1" parent="8_0j-dV4RuszGRuTaeJz-1">
          <mxGeometry x="375.28999999999996" y="930" width="29" height="29" as="geometry" />
        </mxCell>
        <mxCell id="ajLnjdUu-toE6G4Jq8Yi-1" value="" style="edgeStyle=orthogonalEdgeStyle;rounded=0;orthogonalLoop=1;jettySize=auto;html=1;" edge="1" parent="8_0j-dV4RuszGRuTaeJz-1" source="8_0j-dV4RuszGRuTaeJz-9" target="8_0j-dV4RuszGRuTaeJz-7">
          <mxGeometry relative="1" as="geometry">
            <mxPoint x="404" y="945" as="sourcePoint" />
            <mxPoint x="540" y="520" as="targetPoint" />
          </mxGeometry>
        </mxCell>
        <mxCell id="8_0j-dV4RuszGRuTaeJz-7" value="Remove hold" style="sketch=0;outlineConnect=0;fontColor=#232F3E;gradientColor=none;fillColor=#D45B07;strokeColor=none;dashed=0;verticalLabelPosition=bottom;verticalAlign=top;align=center;html=1;fontSize=12;fontStyle=0;aspect=fixed;pointerEvents=1;shape=mxgraph.aws4.lambda_function;" vertex="1" parent="8_0j-dV4RuszGRuTaeJz-1">
          <mxGeometry x="464.25" y="930" width="29" height="29" as="geometry" />
        </mxCell>
        <mxCell id="ajLnjdUu-toE6G4Jq8Yi-5" value="orderId" style="text;html=1;strokeColor=none;fillColor=none;align=center;verticalAlign=middle;whiteSpace=wrap;rounded=0;" vertex="1" parent="8_0j-dV4RuszGRuTaeJz-1">
          <mxGeometry x="230" y="710" width="60" height="30" as="geometry" />
        </mxCell>
      </root>
    </mxGraphModel>
  </diagram>
  <diagram id="GPRI0ow22ErYryaPRpJA" name="Concurrency">
    <mxGraphModel dx="1808" dy="725" grid="1" gridSize="10" guides="1" tooltips="1" connect="1" arrows="1" fold="1" page="1" pageScale="1" pageWidth="827" pageHeight="1169" math="0" shadow="0">
      <root>
        <mxCell id="0" />
        <mxCell id="1" parent="0" />
      </root>
    </mxGraphModel>
  </diagram>
</mxfile>
